<svg width="199" height="174" viewBox="0 0 199 174" fill="none" xmlns="http://www.w3.org/2000/svg">
<path d="M9.56794 154.742C9.47129 154.61 9.43477 154.448 9.4663 154.291C9.49783 154.134 9.59487 153.995 9.73636 153.904C9.80707 153.859 9.88661 153.828 9.97042 153.812C10.0542 153.796 10.1406 153.795 10.2247 153.81C10.3088 153.825 10.3888 153.855 10.4603 153.899C10.5317 153.942 10.5932 153.999 10.641 154.064C10.737 154.196 10.7726 154.358 10.7401 154.514C10.7077 154.67 10.6098 154.808 10.4678 154.897C10.3618 154.965 10.2357 155.001 10.1069 155C10.0011 155.001 9.89652 154.978 9.80253 154.933C9.70853 154.888 9.62797 154.822 9.56794 154.742ZM7.73933 151.926C7.70004 151.856 7.67596 151.78 7.66848 151.702C7.661 151.624 7.67026 151.545 7.69574 151.47C7.72122 151.395 7.76242 151.325 7.81696 151.265C7.87151 151.205 7.93834 151.156 8.01362 151.119C8.08895 151.081 8.1717 151.058 8.25702 151.05C8.34234 151.042 8.42853 151.05 8.51053 151.073C8.59253 151.096 8.66871 151.134 8.73459 151.185C8.80048 151.236 8.85475 151.298 8.89424 151.369C8.97382 151.51 8.98963 151.675 8.93821 151.827C8.88679 151.979 8.77233 152.106 8.61995 152.18C8.52683 152.226 8.42238 152.249 8.31679 152.247C8.19817 152.247 8.08179 152.217 7.98008 152.16C7.87837 152.104 7.79515 152.023 7.73933 151.926ZM6.2572 148.941C6.19555 148.791 6.19984 148.625 6.26915 148.478C6.33846 148.332 6.46724 148.216 6.62773 148.157C6.78794 148.1 6.9659 148.104 7.12276 148.168C7.27963 148.233 7.40267 148.352 7.46504 148.5C7.49618 148.573 7.51141 148.651 7.50987 148.729C7.50833 148.808 7.49005 148.886 7.45607 148.958C7.42209 149.03 7.37309 149.095 7.31187 149.149C7.25065 149.204 7.17842 149.246 7.09932 149.275C7.02502 149.305 6.94465 149.32 6.86353 149.319C6.73308 149.32 6.60547 149.284 6.49733 149.217C6.38919 149.149 6.30551 149.053 6.2572 148.941ZM5.15041 145.826C5.12782 145.75 5.12173 145.67 5.13249 145.592C5.14325 145.513 5.17065 145.438 5.21313 145.369C5.2556 145.3 5.3123 145.24 5.37999 145.191C5.44768 145.143 5.52501 145.108 5.60756 145.087C5.69165 145.066 5.77934 145.062 5.86543 145.073C5.95153 145.084 6.03428 145.112 6.10878 145.153C6.18327 145.195 6.248 145.25 6.29912 145.315C6.35024 145.38 6.38671 145.454 6.40637 145.532C6.45073 145.685 6.4281 145.848 6.34341 145.986C6.25872 146.124 6.1188 146.225 5.95404 146.268C5.89805 146.284 5.83966 146.293 5.7808 146.294C5.63456 146.292 5.49326 146.245 5.37914 146.16C5.26502 146.076 5.18455 145.958 5.15041 145.826ZM4.39491 142.61C4.38043 142.532 4.38265 142.453 4.40145 142.376C4.42025 142.299 4.45525 142.227 4.50445 142.163C4.55364 142.098 4.61606 142.044 4.6881 142.002C4.76014 141.96 4.8404 141.932 4.92424 141.919C5.09451 141.893 5.26892 141.931 5.4095 142.023C5.55009 142.116 5.64549 142.256 5.67493 142.414C5.70276 142.571 5.66215 142.732 5.56202 142.861C5.4619 142.991 5.31041 143.078 5.14079 143.104H5.03011C4.88083 143.103 4.73645 143.055 4.62092 142.967C4.50538 142.88 4.42564 142.758 4.39491 142.623V142.61ZM4.00512 139.362C3.99993 139.283 4.01166 139.204 4.03963 139.13C4.06761 139.055 4.11128 138.986 4.16811 138.927C4.22495 138.869 4.29382 138.821 4.37074 138.787C4.44767 138.753 4.53112 138.733 4.61626 138.729C4.78702 138.722 4.954 138.777 5.08101 138.883C5.20802 138.989 5.28483 139.137 5.29477 139.295C5.29998 139.373 5.28842 139.452 5.26074 139.526C5.23306 139.601 5.18982 139.669 5.13349 139.728C5.07716 139.787 5.00885 139.835 4.93248 139.869C4.85611 139.903 4.77318 139.923 4.68845 139.928H4.64995C4.48495 139.927 4.3265 139.868 4.20674 139.763C4.08698 139.658 4.0149 139.514 4.00512 139.362ZM4.59702 136.711C4.51189 136.708 4.42823 136.69 4.35085 136.657C4.27348 136.624 4.20392 136.577 4.1462 136.519C4.08848 136.461 4.04375 136.393 4.01458 136.319C3.98541 136.245 3.97238 136.166 3.97625 136.087C3.98499 135.928 4.0611 135.778 4.1881 135.671C4.31509 135.563 4.48276 135.506 4.65476 135.512C4.74215 135.512 4.82864 135.529 4.90891 135.561C4.98918 135.593 5.06153 135.64 5.12149 135.698C5.18145 135.757 5.22776 135.827 5.25757 135.903C5.28737 135.979 5.30003 136.06 5.29477 136.141C5.28974 136.295 5.21928 136.441 5.09862 136.548C4.97796 136.655 4.81679 136.713 4.64995 136.711H4.62108H4.59702ZM4.87131 133.508C4.70235 133.481 4.55126 133.395 4.45049 133.266C4.34972 133.138 4.3073 132.978 4.33235 132.821C4.36077 132.667 4.45289 132.528 4.58931 132.435C4.72573 132.342 4.89582 132.302 5.06379 132.322C5.23451 132.347 5.38798 132.432 5.49074 132.561C5.5935 132.689 5.63722 132.85 5.61237 133.009C5.58743 133.149 5.50954 133.278 5.39245 133.371C5.27536 133.464 5.12658 133.515 4.97236 133.516H4.87131V133.508ZM5.51132 130.349C5.3453 130.306 5.20419 130.204 5.1186 130.066C5.03302 129.928 5.00986 129.763 5.05417 129.609C5.07327 129.531 5.10922 129.457 5.15986 129.392C5.2105 129.327 5.2748 129.272 5.34892 129.23C5.42303 129.189 5.50544 129.161 5.59122 129.15C5.677 129.138 5.76439 129.143 5.84817 129.164C5.93237 129.182 6.01178 129.216 6.08176 129.263C6.15174 129.31 6.21088 129.369 6.2557 129.438C6.30051 129.506 6.33012 129.582 6.34277 129.661C6.35542 129.74 6.35087 129.821 6.32938 129.899C6.29075 130.026 6.20835 130.139 6.09464 130.219C5.98092 130.3 5.84205 130.343 5.69899 130.344C5.6367 130.351 5.5739 130.352 5.51132 130.349ZM6.53149 127.27C6.45224 127.241 6.37998 127.198 6.31887 127.143C6.25776 127.088 6.20902 127.022 6.17546 126.95C6.14191 126.878 6.1242 126.8 6.12336 126.721C6.12252 126.642 6.13857 126.564 6.17058 126.49C6.23385 126.342 6.35807 126.223 6.51597 126.16C6.67387 126.096 6.85252 126.094 7.0127 126.152C7.17232 126.212 7.30001 126.328 7.36838 126.475C7.43674 126.621 7.44035 126.787 7.37842 126.936C7.32956 127.048 7.24575 127.144 7.13773 127.211C7.02971 127.279 6.9024 127.315 6.7721 127.315C6.68952 127.315 6.60777 127.299 6.53149 127.27ZM7.93182 124.33C7.78033 124.253 7.66797 124.123 7.61928 123.969C7.57059 123.816 7.58953 123.651 7.67196 123.51C7.75436 123.37 7.89338 123.266 8.0585 123.221C8.22362 123.176 8.40132 123.193 8.55258 123.269C8.70363 123.346 8.8161 123.474 8.86563 123.627C8.91517 123.779 8.89779 123.944 8.81725 124.085C8.76 124.18 8.67633 124.26 8.57484 124.315C8.47336 124.371 8.35771 124.4 8.23979 124.401C8.13235 124.401 8.02653 124.377 7.93182 124.33ZM9.67862 121.55C9.60728 121.506 9.54605 121.449 9.49845 121.383C9.45085 121.317 9.41782 121.243 9.40127 121.165C9.38472 121.087 9.38498 121.007 9.40202 120.929C9.41906 120.852 9.45255 120.778 9.50057 120.712C9.54756 120.646 9.60835 120.589 9.67935 120.545C9.75035 120.501 9.83013 120.471 9.91399 120.456C9.99785 120.441 10.0841 120.442 10.1676 120.458C10.2512 120.475 10.3303 120.506 10.4004 120.552C10.5439 120.64 10.6438 120.777 10.6781 120.933C10.7124 121.089 10.6783 121.252 10.5833 121.385C10.5219 121.466 10.4405 121.532 10.3459 121.577C10.2513 121.623 10.1462 121.647 10.0395 121.648C9.91146 121.648 9.78597 121.614 9.67862 121.55ZM11.6756 118.916C11.6069 118.868 11.5492 118.808 11.5056 118.739C11.4621 118.67 11.4338 118.594 11.4221 118.515C11.4105 118.436 11.4159 118.356 11.4379 118.278C11.4599 118.201 11.4982 118.129 11.5505 118.066C11.6567 117.941 11.812 117.86 11.9824 117.841C12.1529 117.821 12.3246 117.865 12.46 117.963C12.5277 118.011 12.5844 118.071 12.6269 118.139C12.6694 118.208 12.6968 118.283 12.7076 118.362C12.7183 118.44 12.7122 118.52 12.6895 118.596C12.6668 118.672 12.6281 118.743 12.5755 118.805C12.5155 118.879 12.4377 118.939 12.3483 118.98C12.2589 119.021 12.1604 119.042 12.0606 119.041C11.9213 119.038 11.7865 118.995 11.6756 118.916ZM13.8555 116.408C13.7903 116.357 13.7367 116.295 13.6978 116.225C13.6588 116.154 13.6353 116.078 13.6286 115.999C13.6218 115.92 13.6321 115.841 13.6586 115.766C13.6852 115.691 13.7276 115.621 13.7834 115.562C13.8379 115.501 13.9049 115.452 13.9804 115.416C14.0559 115.38 14.1383 115.358 14.223 115.352C14.3076 115.346 14.3928 115.355 14.4734 115.38C14.5541 115.404 14.6287 115.443 14.6929 115.495C14.8241 115.598 14.9059 115.745 14.9204 115.903C14.9348 116.062 14.8807 116.22 14.7698 116.341C14.7099 116.405 14.6361 116.457 14.5532 116.493C14.4704 116.529 14.3802 116.549 14.2886 116.551C14.13 116.556 13.9751 116.505 13.8555 116.408ZM16.1269 113.98C15.9999 113.873 15.9233 113.723 15.9134 113.564C15.9035 113.406 15.9611 113.249 16.0739 113.129C16.1893 113.01 16.3505 112.939 16.5226 112.93C16.6947 112.92 16.8638 112.974 16.993 113.08C17.0569 113.132 17.1089 113.196 17.1462 113.266C17.1834 113.337 17.2051 113.414 17.21 113.493C17.2149 113.572 17.203 113.651 17.1748 113.725C17.1467 113.799 17.1029 113.868 17.046 113.927C16.9866 113.991 16.9128 114.043 16.8298 114.078C16.7467 114.113 16.6562 114.132 16.5648 114.132C16.4041 114.13 16.2491 114.077 16.1269 113.98ZM18.4463 111.579C18.382 111.526 18.3295 111.463 18.2917 111.392C18.254 111.321 18.2318 111.243 18.2264 111.164C18.2211 111.085 18.2326 111.006 18.2605 110.931C18.2883 110.856 18.3318 110.787 18.3886 110.728C18.5033 110.608 18.6641 110.536 18.8362 110.526C19.0084 110.516 19.1778 110.569 19.3077 110.674C19.3717 110.727 19.4238 110.79 19.4611 110.862C19.4984 110.933 19.5201 111.01 19.5251 111.089C19.53 111.169 19.518 111.248 19.4898 111.322C19.4615 111.397 19.4177 111.466 19.3606 111.525C19.3013 111.59 19.2275 111.641 19.1444 111.677C19.0613 111.712 18.9709 111.73 18.8794 111.73C18.7199 111.73 18.5659 111.676 18.4463 111.579ZM20.7369 109.155C20.671 109.105 20.6165 109.043 20.5767 108.973C20.5369 108.903 20.5124 108.826 20.5048 108.748C20.4972 108.669 20.5066 108.589 20.5324 108.514C20.5582 108.439 20.5999 108.369 20.6551 108.308C20.7662 108.187 20.9249 108.111 21.0963 108.098C21.2677 108.084 21.4378 108.135 21.5694 108.237C21.7002 108.34 21.7822 108.487 21.7975 108.645C21.8128 108.803 21.7602 108.961 21.6512 109.084C21.5917 109.149 21.5181 109.201 21.4352 109.238C21.3523 109.275 21.2619 109.295 21.17 109.297C21.0111 109.303 20.856 109.252 20.7369 109.155ZM22.9312 106.664C22.8628 106.617 22.8052 106.558 22.7618 106.489C22.7185 106.421 22.6901 106.346 22.6785 106.268C22.6668 106.189 22.6721 106.11 22.694 106.033C22.7159 105.957 22.754 105.885 22.8061 105.822C22.8572 105.759 22.9215 105.706 22.995 105.666C23.0686 105.625 23.1501 105.599 23.2347 105.588C23.3193 105.578 23.4054 105.582 23.4879 105.603C23.5705 105.623 23.6479 105.658 23.7156 105.707C23.8527 105.803 23.9429 105.946 23.9663 106.104C23.9898 106.261 23.9446 106.421 23.8407 106.549C23.7802 106.623 23.7017 106.684 23.6115 106.726C23.5213 106.767 23.4218 106.789 23.321 106.789C23.1796 106.789 23.0424 106.745 22.9312 106.664ZM24.9571 104.049C24.8126 103.963 24.7107 103.828 24.6737 103.673C24.6367 103.517 24.6677 103.355 24.7598 103.22C24.8535 103.086 25.0006 102.992 25.1692 102.958C25.3377 102.924 25.514 102.952 25.6597 103.038C25.7319 103.08 25.7942 103.135 25.8431 103.2C25.892 103.264 25.9264 103.337 25.9443 103.415C25.9623 103.492 25.9634 103.572 25.9475 103.649C25.9317 103.727 25.8993 103.801 25.8522 103.866C25.7952 103.953 25.7152 104.024 25.62 104.073C25.5247 104.122 25.4174 104.148 25.3084 104.147C25.1837 104.146 25.0619 104.112 24.9571 104.049ZM26.7713 101.296C26.6954 101.26 26.628 101.21 26.5729 101.149C26.5178 101.089 26.4761 101.019 26.4502 100.944C26.4243 100.869 26.4147 100.789 26.4219 100.711C26.4291 100.632 26.453 100.555 26.4922 100.485C26.5722 100.343 26.7098 100.236 26.8748 100.187C27.0399 100.139 27.2189 100.153 27.3728 100.227C27.5243 100.301 27.6379 100.428 27.6892 100.58C27.7405 100.732 27.7254 100.896 27.6471 101.037C27.5919 101.135 27.509 101.217 27.4072 101.274C27.3055 101.332 27.1887 101.362 27.0696 101.363C26.9592 101.368 26.8493 101.344 26.752 101.296H26.7713ZM28.2438 98.3865C28.164 98.3592 28.0908 98.3176 28.0284 98.264C27.9661 98.2104 27.9158 98.146 27.8804 98.0743C27.8451 98.0027 27.8254 97.9253 27.8225 97.8466C27.8196 97.7679 27.8336 97.6894 27.8636 97.6157C27.8936 97.5416 27.939 97.4738 27.9973 97.416C28.0556 97.3582 28.1257 97.3116 28.2035 97.2789C28.2812 97.2462 28.3652 97.2281 28.4506 97.2255C28.5359 97.2229 28.621 97.2358 28.7009 97.2637C28.7809 97.2915 28.8542 97.3335 28.9166 97.3875C28.979 97.4415 29.0294 97.5063 29.0647 97.5783C29.1 97.6503 29.1196 97.7281 29.1224 97.8071C29.1252 97.8862 29.1112 97.9649 29.0811 98.0389C29.0337 98.1536 28.95 98.2524 28.8409 98.3223C28.7319 98.3923 28.6026 98.4302 28.47 98.431C28.3919 98.4318 28.3147 98.4166 28.2438 98.3865ZM29.3265 95.3435C29.1606 95.3064 29.0171 95.2104 28.9271 95.0762C28.8371 94.9419 28.8077 94.7803 28.8453 94.6262C28.8854 94.4735 28.9884 94.3415 29.1323 94.2582C29.2761 94.1749 29.4495 94.1471 29.6152 94.1807C29.7801 94.2178 29.9228 94.3131 30.0127 94.4463C30.1026 94.5795 30.1327 94.74 30.0965 94.8935C30.0594 95.0222 29.9776 95.1361 29.8637 95.2174C29.7497 95.2988 29.61 95.3431 29.4661 95.3435H29.3265ZM188.685 93.6059C188.673 93.5281 188.679 93.4489 188.7 93.3729C188.722 93.297 188.759 93.2257 188.811 93.1632C188.862 93.1007 188.926 93.0482 189 93.0087C189.073 92.9693 189.154 92.9436 189.238 92.9332C189.323 92.9219 189.409 92.9262 189.491 92.9459C189.574 92.9656 189.651 93.0003 189.719 93.048C189.788 93.0956 189.845 93.1553 189.888 93.2235C189.931 93.2918 189.958 93.3672 189.97 93.4455C189.981 93.5239 189.976 93.6037 189.954 93.6802C189.932 93.7567 189.894 93.8285 189.842 93.8914C189.791 93.9543 189.726 94.0071 189.652 94.0468C189.578 94.0865 189.496 94.1123 189.411 94.1227H189.325C189.169 94.123 189.018 94.0707 188.9 93.9757C188.782 93.8806 188.706 93.7492 188.685 93.6059ZM29.8847 92.1624C29.7128 92.1554 29.5508 92.0861 29.4337 91.9694C29.3166 91.8526 29.2539 91.6979 29.2592 91.5387C29.2679 91.3791 29.3438 91.2291 29.4707 91.1208C29.5975 91.0125 29.7652 90.9546 29.9377 90.9595C30.023 90.9629 30.1068 90.9819 30.1842 91.0153C30.2616 91.0488 30.3311 91.096 30.3888 91.1544C30.4464 91.2127 30.4911 91.281 30.5202 91.3554C30.5493 91.4297 30.5623 91.5087 30.5584 91.5877C30.551 91.7425 30.4793 91.8887 30.3582 91.9958C30.2372 92.1029 30.0762 92.1626 29.9088 92.1624H29.8847ZM188.155 90.4649C188.123 90.3084 188.159 90.1463 188.256 90.0143C188.352 89.8823 188.501 89.7912 188.67 89.761C188.839 89.7309 189.015 89.7643 189.157 89.8537C189.3 89.9431 189.398 90.0812 189.431 90.2377C189.463 90.3954 189.427 90.5587 189.329 90.6915C189.232 90.8243 189.081 90.9159 188.911 90.9461H188.791C188.641 90.9458 188.496 90.8978 188.381 90.8102C188.265 90.7225 188.185 90.6006 188.155 90.4649ZM29.0811 88.4467C29.0589 88.2905 29.1032 88.1325 29.2047 88.006C29.3062 87.8796 29.4569 87.7948 29.6249 87.7695C29.7958 87.7451 29.9702 87.7844 30.11 87.8787C30.2498 87.9731 30.3435 88.1148 30.3708 88.2729C30.3944 88.4275 30.3517 88.5844 30.2518 88.7101C30.152 88.8359 30.0029 88.9204 29.8366 88.9457H29.7404C29.584 88.9499 29.4312 88.9018 29.3101 88.8101C29.189 88.7185 29.1077 88.5894 29.0811 88.4467ZM187.4 87.3462C187.38 87.2693 187.376 87.1894 187.39 87.1113C187.403 87.0331 187.433 86.9581 187.478 86.8906C187.522 86.8232 187.581 86.7645 187.65 86.7181C187.72 86.6717 187.798 86.6383 187.881 86.62C188.049 86.5837 188.225 86.6102 188.372 86.6936C188.519 86.777 188.624 86.9106 188.666 87.0655C188.705 87.2203 188.676 87.3831 188.586 87.5183C188.496 87.6536 188.351 87.7503 188.184 87.7873C188.133 87.7935 188.081 87.7935 188.03 87.7873C187.891 87.785 187.755 87.7408 187.645 87.6612C187.535 87.5817 187.456 87.4711 187.419 87.3462H187.4ZM28.2582 85.4305C28.2283 85.3536 28.2157 85.272 28.2209 85.1905C28.2262 85.109 28.2494 85.0293 28.289 84.9564C28.3286 84.8834 28.3839 84.8187 28.4514 84.7662C28.5189 84.7136 28.5973 84.6744 28.6817 84.6508C28.8451 84.6008 29.0232 84.6119 29.1778 84.6819C29.3325 84.7518 29.4515 84.8749 29.5094 85.025C29.5631 85.1769 29.5504 85.3422 29.4739 85.4855C29.3975 85.6288 29.2633 85.7386 29.1004 85.7913C29.0332 85.8104 28.9636 85.8208 28.8934 85.8225C28.7597 85.8238 28.6287 85.7869 28.5184 85.7167C28.4082 85.6465 28.324 85.5466 28.2775 85.4305H28.2582ZM186.515 84.2676C186.468 84.114 186.488 83.9497 186.571 83.8098C186.654 83.6699 186.792 83.5656 186.957 83.5191C187.039 83.4966 187.124 83.4892 187.209 83.4974C187.294 83.5056 187.376 83.5293 187.45 83.567C187.525 83.6046 187.591 83.6556 187.644 83.717C187.697 83.7784 187.737 83.8489 187.761 83.9245C187.785 84 187.793 84.0792 187.784 84.1575C187.775 84.2359 187.75 84.3118 187.709 84.381C187.669 84.4501 187.613 84.5111 187.547 84.5605C187.481 84.6099 187.405 84.6466 187.323 84.6686C187.264 84.6858 187.202 84.6948 187.14 84.6953C187.003 84.6916 186.872 84.6483 186.763 84.5716C186.654 84.4949 186.574 84.3886 186.534 84.2676H186.515ZM26.9493 82.5568C26.8714 82.4148 26.857 82.2501 26.9092 82.0983C26.9615 81.9466 27.0761 81.82 27.2284 81.7459C27.383 81.6744 27.5618 81.6624 27.7258 81.7125C27.8899 81.7626 28.0259 81.8707 28.1042 82.0132C28.1434 82.0831 28.1672 82.1594 28.1743 82.2379C28.1815 82.3163 28.1718 82.3952 28.1458 82.4702C28.1199 82.5451 28.0782 82.6146 28.0232 82.6746C27.9681 82.7345 27.9008 82.7838 27.8251 82.8196C27.735 82.8647 27.634 82.8877 27.5316 82.8865C27.4111 82.8869 27.2928 82.8564 27.1899 82.7981C27.0871 82.7399 27.0038 82.6563 26.9493 82.5568ZM185.494 81.2202C185.466 81.1456 185.454 81.0666 185.459 80.9877C185.464 80.9088 185.486 80.8316 185.523 80.7604C185.56 80.6892 185.612 80.6255 185.675 80.5729C185.739 80.5203 185.813 80.4799 185.894 80.4539C185.974 80.4278 186.06 80.4167 186.145 80.4212C186.23 80.4257 186.314 80.4456 186.39 80.48C186.467 80.5143 186.536 80.5624 186.593 80.6213C186.65 80.6803 186.693 80.7491 186.721 80.8237C186.777 80.9749 186.765 81.1403 186.69 81.2838C186.614 81.4273 186.48 81.5373 186.317 81.59C186.249 81.6115 186.178 81.622 186.106 81.6212C185.972 81.6225 185.841 81.5855 185.731 81.5154C185.62 81.4452 185.536 81.3452 185.49 81.2291L185.494 81.2202ZM25.2507 79.8257C25.204 79.7599 25.1718 79.6863 25.1559 79.609C25.1401 79.5317 25.1409 79.4522 25.1584 79.3752C25.1758 79.2982 25.2095 79.2251 25.2576 79.1602C25.3056 79.0953 25.367 79.0398 25.4383 78.997C25.5098 78.9533 25.59 78.9232 25.6742 78.9085C25.7584 78.8938 25.8449 78.8947 25.9286 78.9113C26.0124 78.9279 26.0918 78.9598 26.1621 79.0051C26.2324 79.0504 26.2923 79.1082 26.3382 79.1752C26.3849 79.241 26.4171 79.3146 26.4329 79.3919C26.4487 79.4692 26.4479 79.5487 26.4305 79.6257C26.413 79.7027 26.3793 79.7757 26.3313 79.8407C26.2832 79.9056 26.2218 79.9611 26.1505 80.0039C26.0442 80.0666 25.9204 80.0992 25.7944 80.0975C25.6833 80.1027 25.5726 80.0813 25.4731 80.0352C25.3736 79.9891 25.2887 79.92 25.2266 79.8346L25.2507 79.8257ZM184.306 78.2396C184.244 78.0918 184.247 77.9273 184.314 77.7815C184.382 77.6357 184.508 77.5203 184.667 77.4599C184.826 77.4009 185.005 77.4023 185.163 77.464C185.322 77.5257 185.448 77.6427 185.514 77.7896C185.577 77.9386 185.575 78.1048 185.508 78.2523C185.44 78.3999 185.313 78.5169 185.153 78.5782C185.074 78.6066 184.991 78.6217 184.907 78.6227C184.777 78.622 184.65 78.5851 184.543 78.5168C184.436 78.4485 184.353 78.3519 184.306 78.2396ZM23.2584 77.2282C23.2074 77.1654 23.1702 77.0939 23.1491 77.0177C23.128 76.9415 23.1234 76.8623 23.1354 76.7844C23.1475 76.7066 23.1761 76.6318 23.2195 76.5642C23.2629 76.4966 23.3203 76.4376 23.3884 76.3906C23.4567 76.3429 23.5345 76.3083 23.6175 76.2887C23.7004 76.2691 23.7867 76.265 23.8713 76.2766C23.956 76.2882 24.0373 76.3153 24.1105 76.3563C24.1838 76.3973 24.2474 76.4514 24.2979 76.5154C24.3499 76.578 24.3878 76.6498 24.4093 76.7263C24.4307 76.8028 24.4353 76.8825 24.4227 76.9607C24.4102 77.0389 24.3807 77.1139 24.3361 77.1813C24.2915 77.2487 24.2326 77.3071 24.1631 77.353C24.0526 77.4313 23.9173 77.4736 23.7781 77.4733C23.6767 77.4735 23.5767 77.4514 23.4864 77.4088C23.396 77.3661 23.3179 77.3043 23.2584 77.2282ZM182.92 75.3169C182.884 75.2453 182.863 75.1678 182.859 75.0888C182.856 75.0098 182.869 74.9309 182.899 74.8567C182.928 74.7825 182.973 74.7145 183.032 74.6566C183.09 74.5987 183.16 74.552 183.238 74.5194C183.394 74.4528 183.572 74.4463 183.734 74.5014C183.895 74.5566 184.027 74.6688 184.099 74.8135C184.17 74.9584 184.176 75.1232 184.116 75.2724C184.057 75.4216 183.937 75.5432 183.781 75.611C183.695 75.6457 183.601 75.6638 183.507 75.6644C183.383 75.6652 183.262 75.6328 183.158 75.5711C183.054 75.5095 182.971 75.4212 182.92 75.3169ZM21.1459 74.7021C21.0931 74.6402 21.054 74.5693 21.031 74.4933C21.0079 74.4174 21.0013 74.338 21.0116 74.2597C21.0219 74.1814 21.0489 74.1058 21.0909 74.0372C21.133 73.9686 21.1893 73.9084 21.2566 73.86C21.3228 73.8106 21.399 73.7738 21.4806 73.7518C21.5623 73.7297 21.6478 73.7229 21.7324 73.7316C21.8169 73.7403 21.8987 73.7644 21.9732 73.8025C22.0476 73.8406 22.1132 73.8919 22.1661 73.9536C22.2724 74.0792 22.3209 74.2385 22.301 74.397C22.2812 74.5555 22.1947 74.7003 22.0602 74.8001C21.9453 74.8845 21.8027 74.9301 21.656 74.9293C21.558 74.9292 21.4613 74.9087 21.373 74.8694C21.2848 74.8301 21.2071 74.7729 21.1459 74.7021ZM181.39 72.4744C181.35 72.4046 181.325 72.3281 181.317 72.2494C181.309 72.1707 181.318 72.0914 181.344 72.0159C181.369 71.9405 181.411 71.8705 181.466 71.81C181.521 71.7495 181.588 71.6998 181.664 71.6636C181.816 71.5899 181.994 71.5752 182.159 71.6229C182.323 71.6705 182.46 71.7764 182.54 71.9175C182.619 72.0588 182.635 72.2235 182.584 72.3755C182.532 72.5275 182.418 72.6544 182.265 72.7284C182.173 72.7733 182.071 72.7977 181.967 72.7997C181.851 72.7928 181.739 72.7574 181.642 72.6971C181.546 72.6368 181.469 72.5538 181.419 72.4566L181.39 72.4744ZM18.9853 72.1759C18.9324 72.1141 18.8934 72.0431 18.8703 71.9672C18.8473 71.8912 18.8407 71.8118 18.851 71.7335C18.8613 71.6552 18.8882 71.5796 18.9303 71.511C18.9723 71.4424 19.0286 71.3822 19.0959 71.3339C19.2308 71.2357 19.4021 71.191 19.5725 71.2093C19.7429 71.2277 19.8985 71.3077 20.0054 71.4319C20.1114 71.5568 20.1598 71.7154 20.14 71.8731C20.1201 72.0309 20.0337 72.175 19.8996 72.2739C19.7851 72.3596 19.6426 72.4067 19.4953 72.4076C19.397 72.407 19.3 72.3858 19.2117 72.3457C19.1234 72.3056 19.046 72.2476 18.9853 72.1759ZM179.71 69.6676C179.667 69.6001 179.638 69.5253 179.626 69.4474C179.614 69.3696 179.618 69.2904 179.639 69.2142C179.66 69.138 179.697 69.0665 179.748 69.0036C179.799 68.9407 179.863 68.8878 179.936 68.8478C180.01 68.8077 180.091 68.7813 180.176 68.7703C180.261 68.7594 180.347 68.7639 180.429 68.7838C180.512 68.8036 180.59 68.8384 180.658 68.8861C180.726 68.9338 180.783 68.9934 180.827 69.0617C180.871 69.1293 180.899 69.2044 180.912 69.2825C180.924 69.3606 180.919 69.4402 180.897 69.5165C180.876 69.5929 180.838 69.6645 180.786 69.7272C180.734 69.7898 180.67 69.8423 180.596 69.8815C180.497 69.9371 180.384 69.9664 180.268 69.9661C180.158 69.9639 180.051 69.9352 179.956 69.8828C179.862 69.8305 179.784 69.7563 179.729 69.6676H179.71ZM16.8439 69.6052C16.7428 69.4761 16.7007 69.3153 16.7268 69.1577C16.753 69 16.8452 68.8583 16.9834 68.7632C17.1229 68.6696 17.2966 68.6306 17.4668 68.6548C17.6371 68.679 17.7902 68.7644 17.8929 68.8924C17.9436 68.9561 17.9802 69.0285 18.0006 69.1053C18.021 69.1822 18.0249 69.262 18.0119 69.3402C17.9989 69.4184 17.9694 69.4935 17.9251 69.5612C17.8807 69.6288 17.8224 69.6877 17.7534 69.7344C17.6421 69.8109 17.5069 69.8515 17.3684 69.8503C17.2663 69.8504 17.1656 69.8283 17.0745 69.7858C16.9834 69.7432 16.9044 69.6813 16.8439 69.6052ZM177.896 66.9632C177.849 66.8977 177.817 66.8243 177.8 66.7472C177.784 66.6701 177.785 66.5907 177.802 66.5137C177.819 66.4368 177.852 66.3636 177.899 66.2985C177.947 66.2335 178.008 66.1777 178.079 66.1345C178.15 66.0904 178.229 66.0598 178.313 66.0444C178.397 66.029 178.483 66.0292 178.567 66.0449C178.651 66.0607 178.73 66.0917 178.801 66.1361C178.872 66.1806 178.932 66.2376 178.979 66.3038C179.026 66.3698 179.059 66.4437 179.075 66.5215C179.092 66.5993 179.091 66.6793 179.073 66.7568C179.056 66.8343 179.022 66.9079 178.974 66.9732C178.925 67.0384 178.863 67.0941 178.791 67.137C178.686 67.202 178.562 67.2362 178.435 67.235C178.33 67.2337 178.227 67.2082 178.135 67.1607C178.044 67.1133 177.967 67.0454 177.91 66.9632H177.896ZM14.8517 66.9231C14.8048 66.857 14.7726 66.7829 14.7572 66.7051C14.7417 66.6274 14.7432 66.5475 14.7616 66.4703C14.78 66.393 14.8149 66.32 14.8642 66.2555C14.9136 66.1909 14.9764 66.1362 15.0489 66.0944C15.1203 66.051 15.2004 66.0213 15.2844 66.007C15.3684 65.9926 15.4547 65.994 15.5381 66.0111C15.6215 66.0281 15.7004 66.0604 15.7701 66.1061C15.8398 66.1518 15.8989 66.2099 15.944 66.2771C15.9903 66.3434 16.0218 66.4175 16.037 66.4952C16.0521 66.5728 16.0504 66.6525 16.0321 66.7296C16.0137 66.8066 15.979 66.8795 15.9301 66.9441C15.8811 67.0087 15.8188 67.0637 15.7467 67.1058C15.6437 67.1678 15.5231 67.2004 15.4002 67.1994C15.2934 67.1983 15.1885 67.1724 15.0952 67.1242C15.0019 67.0759 14.9231 67.0068 14.8661 66.9231H14.8517ZM175.928 64.348C175.827 64.2188 175.785 64.058 175.811 63.9004C175.837 63.7428 175.929 63.601 176.067 63.5059C176.206 63.4125 176.379 63.3737 176.549 63.3979C176.718 63.4221 176.87 63.5074 176.972 63.6351C177.023 63.6988 177.059 63.7712 177.08 63.8481C177.1 63.9249 177.104 64.0047 177.091 64.083C177.078 64.1612 177.049 64.2363 177.004 64.3039C176.96 64.3716 176.902 64.4304 176.833 64.4772C176.723 64.5536 176.589 64.5943 176.452 64.593C176.353 64.5911 176.255 64.568 176.167 64.5256C176.078 64.4831 176.001 64.4223 175.942 64.348H175.928ZM13.0856 64.094C13.0445 64.0221 13.0195 63.9432 13.012 63.8621C13.0046 63.781 13.0149 63.6993 13.0423 63.622C13.0697 63.5446 13.1136 63.4732 13.1715 63.4119C13.2294 63.3506 13.3 63.3008 13.3791 63.2653C13.5325 63.1932 13.7104 63.1798 13.8743 63.2282C14.0382 63.2766 14.1749 63.3827 14.2549 63.5237C14.3329 63.6657 14.3473 63.8304 14.295 63.9822C14.2428 64.1339 14.1281 64.2605 13.9758 64.3346C13.8834 64.3781 13.7812 64.401 13.6775 64.4014C13.5602 64.4032 13.4446 64.3756 13.343 64.3215C13.2413 64.2673 13.1574 64.1887 13.1 64.094H13.0856ZM173.811 61.8307C173.703 61.7068 173.652 61.5485 173.669 61.3901C173.686 61.2317 173.77 61.0859 173.902 60.9842C174.036 60.8843 174.207 60.8372 174.378 60.853C174.549 60.8688 174.706 60.9464 174.816 61.0689C174.871 61.1298 174.912 61.2001 174.937 61.2758C174.962 61.3515 174.97 61.4311 174.962 61.5098C174.953 61.5886 174.928 61.665 174.887 61.7347C174.847 61.8043 174.791 61.8657 174.725 61.9154C174.61 62.0043 174.465 62.0531 174.316 62.0535C174.223 62.0503 174.132 62.0288 174.049 61.9904C173.966 61.952 173.893 61.8975 173.835 61.8307H173.811ZM11.6035 61.1357C11.5704 61.0626 11.5532 60.9841 11.5529 60.9049C11.5527 60.8256 11.5694 60.7471 11.602 60.6738C11.6346 60.6005 11.6826 60.5339 11.7432 60.4778C11.8037 60.4218 11.8756 60.3773 11.9548 60.3471C12.0331 60.3164 12.1172 60.3003 12.2022 60.2999C12.2873 60.2994 12.3716 60.3145 12.4503 60.3443C12.529 60.3741 12.6006 60.4181 12.6609 60.4736C12.7212 60.5291 12.7691 60.5952 12.8017 60.6679C12.8355 60.7409 12.8532 60.8195 12.8537 60.8989C12.8543 60.9783 12.8378 61.0571 12.805 61.1305C12.7723 61.204 12.7241 61.2706 12.6632 61.3266C12.6023 61.3826 12.53 61.4267 12.4504 61.4565C12.373 61.488 12.2895 61.5047 12.205 61.5055C12.0767 61.5047 11.9515 61.4693 11.8447 61.4036C11.7378 61.3379 11.654 61.2448 11.6035 61.1357ZM171.587 59.4204C171.472 59.3018 171.412 59.146 171.42 58.9867C171.428 58.8274 171.504 58.6775 171.631 58.5694C171.759 58.4628 171.927 58.4072 172.099 58.4147C172.271 58.4222 172.433 58.4922 172.55 58.6095C172.665 58.7281 172.725 58.884 172.717 59.0433C172.709 59.2026 172.633 59.3525 172.506 59.4605C172.386 59.5604 172.23 59.6159 172.069 59.6164C171.978 59.6163 171.889 59.5989 171.806 59.5651C171.723 59.5314 171.649 59.4821 171.587 59.4204ZM10.3812 58.0838C10.3549 58.0086 10.3449 57.9294 10.3518 57.8506C10.3586 57.7719 10.3821 57.6951 10.421 57.6248C10.4599 57.5545 10.5134 57.4919 10.5784 57.4407C10.6434 57.3895 10.7186 57.3507 10.7998 57.3264C10.9645 57.2788 11.1428 57.2932 11.296 57.3666C11.4492 57.44 11.5649 57.5665 11.6179 57.7185C11.6681 57.8709 11.6519 58.0355 11.5728 58.177C11.4936 58.3185 11.3578 58.4258 11.1944 58.4759C11.1305 58.4938 11.064 58.5028 10.9971 58.5026C10.857 58.5023 10.7208 58.4594 10.6096 58.3806C10.4983 58.3017 10.4181 58.1912 10.3812 58.066V58.0838ZM169.205 57.1393C169.145 57.0834 169.097 57.0171 169.064 56.9441C169.032 56.8711 169.015 56.7928 169.015 56.7138C169.015 56.6348 169.032 56.5565 169.064 56.4835C169.097 56.4105 169.145 56.3442 169.205 56.2883C169.266 56.2324 169.337 56.1881 169.416 56.1578C169.495 56.1276 169.58 56.112 169.665 56.112C169.75 56.112 169.835 56.1276 169.914 56.1578C169.992 56.1881 170.064 56.2324 170.124 56.2883C170.185 56.3435 170.234 56.4094 170.267 56.482C170.3 56.5547 170.317 56.6328 170.317 56.7116C170.317 56.7904 170.3 56.8685 170.267 56.9411C170.234 57.0138 170.185 57.0797 170.124 57.1348C170.065 57.192 169.994 57.2376 169.916 57.269C169.837 57.3004 169.753 57.3169 169.667 57.3175C169.58 57.3152 169.494 57.2967 169.415 57.263C169.335 57.2294 169.264 57.1812 169.205 57.1215V57.1393ZM9.44283 54.9384C9.40377 54.7836 9.43246 54.6208 9.52262 54.4856C9.61279 54.3503 9.7571 54.2537 9.92404 54.2166C10.0068 54.1981 10.0928 54.195 10.1769 54.2074C10.261 54.2198 10.3416 54.2475 10.4141 54.2889C10.4866 54.3303 10.5495 54.3847 10.5992 54.4487C10.6489 54.5128 10.6844 54.5853 10.7036 54.6621C10.7427 54.8169 10.714 54.9797 10.6238 55.1149C10.5336 55.2502 10.3893 55.3469 10.2224 55.3839C10.1745 55.3903 10.1259 55.3903 10.078 55.3839C9.92953 55.3866 9.78453 55.342 9.6672 55.2577C9.54987 55.1734 9.46728 55.0544 9.4332 54.9205L9.44283 54.9384ZM166.703 54.9384C166.639 54.8862 166.587 54.8228 166.55 54.7519C166.513 54.6811 166.491 54.604 166.486 54.5253C166.481 54.4466 166.493 54.3678 166.521 54.2934C166.549 54.219 166.593 54.1505 166.65 54.0919C166.765 53.9726 166.926 53.9001 167.098 53.8901C167.27 53.8801 167.439 53.9334 167.569 54.0384C167.697 54.1452 167.775 54.2945 167.785 54.4538C167.795 54.6131 167.736 54.7697 167.622 54.8894C167.562 54.9527 167.488 55.0036 167.405 55.0389C167.322 55.0742 167.232 55.0931 167.141 55.0943C166.977 55.0968 166.817 55.0428 166.693 54.9428L166.703 54.9384ZM164.095 52.8622C163.963 52.7599 163.88 52.6133 163.865 52.4546C163.85 52.2959 163.903 52.138 164.013 52.0157C164.068 51.955 164.135 51.905 164.211 51.8685C164.286 51.832 164.369 51.8098 164.454 51.8032C164.539 51.7966 164.625 51.8056 164.706 51.8299C164.787 51.8541 164.863 51.893 164.927 51.9444C164.993 51.9943 165.047 52.0558 165.087 52.1254C165.127 52.195 165.151 52.2712 165.159 52.3496C165.167 52.4279 165.157 52.507 165.132 52.582C165.106 52.657 165.064 52.7265 165.009 52.7865C164.95 52.8524 164.877 52.9061 164.794 52.9437C164.711 52.9813 164.62 53.0022 164.528 53.0048C164.37 53.0073 164.216 52.9566 164.095 52.8622ZM8.77394 51.7127C8.76031 51.6348 8.76363 51.5551 8.78372 51.4784C8.8038 51.4017 8.84024 51.3295 8.8909 51.266C8.94155 51.2025 9.0054 51.149 9.0787 51.1086C9.15199 51.0683 9.23325 51.0419 9.31771 51.0311C9.48843 51.0093 9.66158 51.0502 9.80009 51.1451C9.93861 51.2401 10.0315 51.3814 10.0588 51.539C10.0822 51.6972 10.0371 51.8575 9.93352 51.9852C9.82989 52.1128 9.67603 52.1975 9.50538 52.2206H9.41395C9.25892 52.2221 9.10859 52.1714 8.99088 52.078C8.87317 51.9846 8.79608 51.8548 8.77394 51.7127ZM161.41 50.7905C161.345 50.7388 161.291 50.6758 161.253 50.605C161.214 50.5342 161.191 50.4571 161.185 50.378C161.179 50.2989 161.189 50.2194 161.216 50.1442C161.243 50.0689 161.286 49.9994 161.342 49.9395C161.454 49.8186 161.613 49.7437 161.785 49.7312C161.956 49.7187 162.126 49.7696 162.257 49.8727C162.387 49.977 162.469 50.125 162.482 50.2844C162.496 50.4438 162.44 50.6017 162.329 50.7237C162.269 50.7878 162.195 50.8396 162.112 50.8756C162.029 50.9117 161.939 50.9313 161.848 50.9331C161.688 50.9367 161.532 50.886 161.41 50.7905ZM8.38416 48.4693C8.37361 48.3104 8.4315 48.1542 8.54515 48.0347C8.6588 47.9153 8.81894 47.8425 8.99048 47.8322C9.16207 47.8224 9.33084 47.876 9.45982 47.9812C9.5888 48.0864 9.66748 48.2347 9.67862 48.3935C9.68404 48.5475 9.62498 48.6974 9.51378 48.812C9.40257 48.9266 9.24784 48.997 9.08192 49.0084H9.03861C8.87714 49.009 8.7213 48.9535 8.60191 48.8528C8.48251 48.7522 8.40824 48.6137 8.39378 48.4648L8.38416 48.4693ZM158.777 48.6297C158.653 48.5192 158.581 48.368 158.577 48.2088C158.572 48.0495 158.636 47.895 158.753 47.7787C158.871 47.6626 159.034 47.5943 159.206 47.5884C159.378 47.5826 159.546 47.6398 159.673 47.7475C159.797 47.8587 159.869 48.0107 159.874 48.1707C159.878 48.3307 159.815 48.4859 159.697 48.6029C159.635 48.6637 159.56 48.7117 159.478 48.744C159.395 48.7762 159.305 48.7919 159.215 48.7901C159.061 48.7807 158.915 48.7225 158.802 48.6252L158.777 48.6297ZM156.309 46.2995C156.252 46.2408 156.207 46.1722 156.179 46.0976C156.15 46.023 156.138 45.9439 156.142 45.8648C156.147 45.7858 156.168 45.7083 156.205 45.6369C156.242 45.5654 156.293 45.5015 156.357 45.4486C156.485 45.3433 156.654 45.2894 156.825 45.2985C156.996 45.3077 157.157 45.3793 157.271 45.4976C157.329 45.5563 157.373 45.625 157.401 45.6996C157.43 45.7742 157.443 45.8533 157.438 45.9323C157.434 46.0114 157.412 46.0888 157.375 46.1603C157.339 46.2317 157.287 46.2957 157.223 46.3486C157.103 46.4448 156.949 46.4985 156.79 46.5C156.7 46.4979 156.612 46.4785 156.531 46.4432C156.45 46.408 156.378 46.3575 156.318 46.2951L156.309 46.2995ZM8.94718 45.8139C8.77528 45.8104 8.61178 45.7444 8.49202 45.6302C8.37226 45.516 8.30586 45.3627 8.30716 45.2035C8.31096 45.0436 8.3829 44.8916 8.5073 44.7806C8.63171 44.6695 8.79848 44.6086 8.97124 44.611C9.05837 44.6097 9.14486 44.6249 9.22551 44.6554C9.30615 44.686 9.37926 44.7314 9.44043 44.7889C9.50159 44.8463 9.54954 44.9147 9.58139 44.9898C9.61323 45.0649 9.6283 45.1452 9.62569 45.2258C9.62315 45.3834 9.55343 45.5336 9.43174 45.6438C9.31005 45.754 9.14624 45.8151 8.97605 45.8139H8.94718ZM154.115 43.7066C154.066 43.6417 154.032 43.5684 154.014 43.491C153.996 43.4137 153.995 43.3338 154.011 43.2562C154.028 43.1785 154.06 43.1047 154.108 43.0389C154.155 42.9732 154.216 42.9169 154.288 42.8734C154.43 42.7842 154.604 42.7505 154.772 42.7797C154.941 42.8089 155.09 42.8987 155.188 43.0294C155.284 43.1619 155.32 43.3243 155.287 43.4811C155.255 43.638 155.157 43.7766 155.014 43.867C154.907 43.9361 154.779 43.9734 154.649 43.9739C154.543 43.9737 154.438 43.9493 154.345 43.9026C154.252 43.8559 154.173 43.7886 154.115 43.7066ZM9.10598 42.6016C9.02094 42.5938 8.9384 42.5706 8.86308 42.5332C8.78777 42.4958 8.72116 42.4451 8.66707 42.3838C8.61298 42.3226 8.57248 42.252 8.54788 42.1763C8.52328 42.1005 8.51506 42.021 8.52371 41.9423C8.54312 41.7834 8.62911 41.6378 8.7632 41.537C8.89728 41.4362 9.06875 41.3881 9.24072 41.4032C9.41072 41.4211 9.56622 41.5004 9.67344 41.6239C9.78065 41.7473 9.83094 41.905 9.81336 42.0626C9.79784 42.2111 9.72326 42.3489 9.60409 42.4494C9.48493 42.5498 9.32969 42.6057 9.16853 42.6061H9.10598V42.6016ZM152.363 40.8195C152.293 40.6736 152.289 40.5081 152.352 40.3593C152.414 40.2106 152.537 40.0909 152.695 40.0265C152.853 39.9619 153.033 39.958 153.194 40.0156C153.356 40.0732 153.486 40.1877 153.556 40.3339C153.624 40.4805 153.627 40.646 153.564 40.7945C153.501 40.943 153.377 41.0624 153.219 41.1269C153.138 41.1616 153.049 41.1798 152.96 41.1804C152.832 41.1788 152.708 41.143 152.602 41.0773C152.496 41.0117 152.413 40.9191 152.363 40.8106V40.8195ZM9.55832 39.4117C9.39002 39.3795 9.24236 39.2868 9.14766 39.1541C9.05296 39.0213 9.01894 38.8592 9.05304 38.7033C9.08788 38.5472 9.18771 38.4101 9.33092 38.3217C9.47413 38.2334 9.64918 38.2007 9.81817 38.231C9.98648 38.2653 10.1338 38.3589 10.229 38.4919C10.3242 38.6249 10.3598 38.787 10.3283 38.9438C10.2956 39.0786 10.2145 39.1992 10.0982 39.2858C9.98199 39.3724 9.83745 39.4199 9.68824 39.4206C9.64471 39.422 9.60114 39.419 9.55832 39.4117ZM62.559 37.6919C62.5552 37.6129 62.5682 37.534 62.5973 37.4596C62.6264 37.3853 62.6711 37.317 62.7287 37.2586C62.7864 37.2003 62.8559 37.153 62.9333 37.1196C63.0107 37.0861 63.0945 37.0671 63.1798 37.0637C63.2647 37.0595 63.3496 37.071 63.4296 37.0975C63.5096 37.124 63.5831 37.165 63.6458 37.2181C63.7085 37.2712 63.7592 37.3353 63.7948 37.4067C63.8305 37.4781 63.8504 37.5554 63.8535 37.634C63.858 37.7128 63.8457 37.7916 63.8171 37.8659C63.7885 37.9403 63.7443 38.0086 63.687 38.067C63.6298 38.1254 63.5605 38.1728 63.4834 38.2063C63.4062 38.2398 63.3227 38.2588 63.2376 38.2622H63.2087C63.0417 38.2635 62.8807 38.2048 62.7596 38.0984C62.6384 37.9921 62.5665 37.8463 62.559 37.6919ZM151.295 37.6251C151.263 37.4681 151.3 37.3061 151.396 37.1736C151.492 37.0412 151.641 36.949 151.81 36.9167C151.974 36.8951 152.141 36.9317 152.278 37.0193C152.414 37.1068 152.51 37.2388 152.546 37.3889C152.579 37.5417 152.548 37.7005 152.458 37.8324C152.369 37.9643 152.228 38.0592 152.065 38.0973C152.021 38.1018 151.978 38.1018 151.935 38.0973C151.782 38.102 151.632 38.0575 151.511 37.9714C151.39 37.8852 151.305 37.7628 151.271 37.6251H151.295ZM59.6477 38.0706C59.4769 38.0454 59.3238 37.9586 59.2219 37.8292C59.12 37.6998 59.0776 37.5383 59.104 37.38C59.1168 37.3021 59.1463 37.2272 59.1906 37.1598C59.2349 37.0924 59.2932 37.0339 59.3621 36.9875C59.431 36.9411 59.5092 36.9078 59.592 36.8895C59.6749 36.8712 59.7609 36.8684 59.845 36.881C60.0149 36.9063 60.1671 36.9924 60.2689 37.1208C60.3707 37.2492 60.4137 37.4096 60.3888 37.5672C60.3637 37.7088 60.2851 37.8376 60.167 37.9306C60.0489 38.0237 59.899 38.0748 59.744 38.0751H59.6477V38.0706ZM66.0045 37.3221C65.9838 37.2449 65.9798 37.1646 65.9928 37.0859C66.0058 37.0072 66.0355 36.9317 66.0803 36.8637C66.125 36.7957 66.1839 36.7367 66.2535 36.6899C66.3231 36.6432 66.4021 36.6097 66.4857 36.5914C66.5692 36.5716 66.6561 36.5674 66.7413 36.5792C66.8265 36.591 66.9084 36.6184 66.9819 36.6599C67.0555 36.7015 67.1193 36.7562 67.1697 36.821C67.22 36.8858 67.2558 36.9592 67.2749 37.037C67.2957 37.1142 67.2997 37.1945 67.2867 37.2732C67.2737 37.3519 67.2439 37.4274 67.1992 37.4954C67.1544 37.5634 67.0955 37.6224 67.0259 37.6691C66.9563 37.7159 66.8774 37.7494 66.7937 37.7676C66.7394 37.7742 66.6844 37.7742 66.6301 37.7676C66.4848 37.772 66.3421 37.7314 66.2245 37.6524C66.1069 37.5733 66.021 37.4603 65.9805 37.331L66.0045 37.3221ZM56.1686 37.2865C56.0878 37.2618 56.0132 37.2226 55.9489 37.1711C55.8846 37.1197 55.8319 37.0569 55.7939 36.9865C55.7559 36.9161 55.7333 36.8395 55.7274 36.761C55.7215 36.6825 55.7324 36.6037 55.7595 36.5291C55.7857 36.4539 55.8277 36.3842 55.883 36.324C55.9383 36.2638 56.0058 36.2143 56.0818 36.1783C56.1578 36.1424 56.2407 36.1206 56.3257 36.1142C56.4108 36.1079 56.4964 36.1172 56.5776 36.1415C56.7407 36.1914 56.8759 36.2991 56.9534 36.441C57.031 36.583 57.0446 36.7476 56.9914 36.8989C56.9488 37.0203 56.8659 37.1262 56.7544 37.2014C56.6429 37.2767 56.5086 37.3173 56.3707 37.3177C56.2945 37.3202 56.2184 37.3127 56.1445 37.2954L56.1686 37.2865ZM69.296 36.3509C69.2597 36.2793 69.2392 36.2017 69.2355 36.1227C69.2318 36.0437 69.2452 35.9648 69.2747 35.8906C69.3043 35.8164 69.3494 35.7484 69.4076 35.6905C69.4658 35.6326 69.5358 35.586 69.6136 35.5534C69.6912 35.5199 69.7753 35.5011 69.8608 35.498C69.9464 35.4949 70.0317 35.5076 70.1119 35.5354C70.1921 35.5632 70.2655 35.6055 70.3278 35.6598C70.3902 35.7142 70.4402 35.7794 70.475 35.8519C70.5453 35.9973 70.551 36.1626 70.4906 36.3119C70.4303 36.4612 70.3088 36.5824 70.1526 36.6494C70.0678 36.6844 69.976 36.7027 69.8831 36.7028C69.7589 36.7032 69.6373 36.6702 69.533 36.6077C69.4288 36.5452 69.3464 36.4559 69.296 36.3509ZM10.3716 36.284C10.2084 36.2341 10.0733 36.1264 9.99572 35.9844C9.91816 35.8425 9.9045 35.6779 9.95772 35.5266C9.98439 35.4513 10.0269 35.3817 10.0827 35.3216C10.1386 35.2615 10.2067 35.2123 10.2831 35.1767C10.3596 35.1411 10.4429 35.1198 10.5283 35.1141C10.6137 35.1084 10.6994 35.1184 10.7806 35.1435C10.9437 35.1934 11.0789 35.3011 11.1564 35.4431C11.234 35.585 11.2477 35.7496 11.1944 35.9009C11.1519 36.0212 11.0695 36.126 10.9589 36.2003C10.8483 36.2747 10.7152 36.3149 10.5785 36.3152C10.5083 36.3135 10.4387 36.3031 10.3716 36.284ZM52.8482 36.088C52.7711 36.0541 52.7019 36.0065 52.6447 35.9478C52.5874 35.8891 52.5433 35.8206 52.5146 35.7461C52.486 35.6716 52.4736 35.5927 52.478 35.5137C52.4824 35.4348 52.5035 35.3574 52.5402 35.286C52.5763 35.2148 52.6273 35.1509 52.6902 35.0979C52.7532 35.045 52.8268 35.0041 52.9068 34.9776C52.9869 34.9511 53.0718 34.9395 53.1567 34.9435C53.2416 34.9475 53.3248 34.967 53.4016 35.0009C53.4791 35.0343 53.5488 35.0817 53.6063 35.1403C53.6639 35.1989 53.7084 35.2675 53.737 35.3421C53.7657 35.4168 53.778 35.496 53.7733 35.5751C53.7686 35.6542 53.7469 35.7316 53.7096 35.8029C53.6572 35.9059 53.5742 35.993 53.4701 36.0538C53.3661 36.1146 53.2455 36.1465 53.1225 36.1459C53.0277 36.1442 52.9344 36.1245 52.8482 36.088ZM72.371 34.8895C72.2784 34.7558 72.2467 34.5937 72.2828 34.4384C72.3188 34.2832 72.4197 34.1475 72.5634 34.0608C72.6351 34.0177 72.7153 33.9881 72.7994 33.9737C72.8834 33.9593 72.9697 33.9604 73.0533 33.977C73.1369 33.9936 73.2162 34.0252 73.2865 34.0702C73.3569 34.1152 73.417 34.1725 73.4633 34.239C73.5099 34.3054 73.5419 34.3796 73.5574 34.4575C73.573 34.5353 73.5718 34.6152 73.5539 34.6926C73.536 34.77 73.5018 34.8434 73.4532 34.9085C73.4046 34.9737 73.3427 35.0293 73.2708 35.0722C73.1653 35.1328 73.0437 35.1651 72.9195 35.1658C72.8086 35.1642 72.6999 35.1364 72.6039 35.0849C72.5079 35.0334 72.4277 34.96 72.371 34.8717V34.8895ZM150.929 34.3059C150.93 34.2269 150.947 34.1488 150.98 34.076C151.013 34.0033 151.062 33.9373 151.123 33.8819C151.183 33.8264 151.255 33.7826 151.334 33.7529C151.413 33.7233 151.498 33.7083 151.583 33.7089C151.754 33.71 151.917 33.7733 152.038 33.885C152.159 33.9967 152.227 34.1479 152.228 34.3059C152.228 34.465 152.161 34.6178 152.04 34.7312C151.919 34.8446 151.755 34.9095 151.583 34.9118C151.41 34.9118 151.243 34.848 151.121 34.7343C150.998 34.6207 150.929 34.4666 150.929 34.3059ZM49.7251 34.542C49.6508 34.5032 49.5855 34.451 49.5331 34.3887C49.4807 34.3263 49.4422 34.2549 49.4198 34.1787C49.3974 34.1024 49.3916 34.0228 49.4027 33.9444C49.4138 33.8661 49.4416 33.7906 49.4845 33.7222C49.5702 33.5841 49.7115 33.4831 49.8775 33.4414C50.0435 33.3996 50.2206 33.4205 50.3699 33.4995C50.5194 33.5796 50.6286 33.7113 50.6737 33.8657C50.7188 34.0201 50.6961 34.1847 50.6105 34.3237C50.5532 34.4148 50.471 34.4903 50.3722 34.5427C50.2734 34.5951 50.1614 34.6225 50.0475 34.6222C49.9352 34.6247 49.8241 34.6001 49.7251 34.5509V34.542ZM11.5842 33.2678C11.4293 33.1984 11.3102 33.0754 11.2525 32.9253C11.1949 32.7752 11.2034 32.6102 11.2762 32.4658C11.3511 32.3224 11.4843 32.2123 11.6466 32.1597C11.809 32.107 11.9873 32.1162 12.1424 32.1852C12.2942 32.2527 12.4114 32.3726 12.4689 32.5191C12.5265 32.6657 12.5198 32.8272 12.4504 32.9693C12.3976 33.072 12.3144 33.1588 12.2105 33.2195C12.1066 33.2802 11.9862 33.3124 11.8633 33.3123C11.7678 33.3176 11.6723 33.3024 11.5842 33.2678ZM75.2149 33.0228C75.16 32.9621 75.1186 32.892 75.0932 32.8165C75.0678 32.7409 75.0589 32.6615 75.067 32.5827C75.075 32.504 75.0999 32.4275 75.1402 32.3577C75.1805 32.2879 75.2353 32.2262 75.3016 32.1762C75.4343 32.0747 75.6052 32.0261 75.7766 32.0411C75.9481 32.0562 76.1061 32.1336 76.2159 32.2564C76.3237 32.3797 76.3755 32.537 76.3602 32.695C76.3449 32.8531 76.2638 32.9994 76.134 33.1029C76.0152 33.1912 75.8677 33.2398 75.7154 33.2411C75.6198 33.2407 75.5255 33.221 75.439 33.1833C75.3526 33.1456 75.2761 33.0908 75.2149 33.0228ZM46.732 32.8579C46.5871 32.7711 46.4851 32.6349 46.4482 32.4789C46.4112 32.3229 46.4423 32.1597 46.5347 32.0248C46.5806 31.9578 46.6404 31.9 46.7108 31.8547C46.7811 31.8093 46.8605 31.7775 46.9442 31.7609C47.028 31.7443 47.1145 31.7433 47.1987 31.758C47.2829 31.7727 47.3631 31.8028 47.4345 31.8466C47.5062 31.889 47.5681 31.9443 47.6166 32.009C47.6651 32.0737 47.6993 32.1467 47.7172 32.2238C47.7351 32.3008 47.7363 32.3804 47.7209 32.4579C47.7054 32.5353 47.6735 32.6092 47.627 32.6752C47.5695 32.7605 47.4892 32.8306 47.394 32.879C47.2988 32.9273 47.1918 32.9523 47.0833 32.9515C46.9587 32.9536 46.8363 32.921 46.732 32.8579ZM151.718 31.6995C151.548 31.6795 151.393 31.5981 151.286 31.4731C151.18 31.348 151.131 31.1893 151.15 31.0312C151.172 30.8726 151.26 30.7282 151.397 30.6297C151.533 30.5313 151.705 30.4866 151.877 30.5055C151.961 30.5149 152.043 30.5396 152.117 30.5783C152.191 30.6171 152.256 30.669 152.309 30.7311C152.361 30.7932 152.4 30.8643 152.422 30.9403C152.445 31.0163 152.451 31.0956 152.44 31.1738C152.422 31.3195 152.347 31.4541 152.229 31.5519C152.111 31.6497 151.958 31.7038 151.8 31.704H151.718V31.6995ZM43.8158 31.0802C43.745 31.0363 43.6843 30.9799 43.6373 30.9141C43.5902 30.8483 43.5577 30.7746 43.5415 30.6971C43.5254 30.6196 43.5261 30.54 43.5434 30.4627C43.5608 30.3855 43.5945 30.3122 43.6426 30.2471C43.7385 30.115 43.8871 30.0234 44.0557 29.9925C44.2244 29.9616 44.3994 29.9939 44.5425 30.0823C44.6852 30.171 44.7841 30.3086 44.8174 30.4648C44.8508 30.6209 44.816 30.783 44.7205 30.9154C44.6602 30.9976 44.5792 31.0648 44.4844 31.1114C44.3896 31.158 44.284 31.1825 44.1767 31.1827C44.0481 31.1827 43.9224 31.147 43.8158 31.0802ZM77.8183 30.8976C77.6961 30.784 77.6274 30.6302 77.6274 30.4699C77.6274 30.3095 77.6961 30.1557 77.8183 30.0422C77.8782 29.9864 77.9494 29.9421 78.0279 29.9119C78.1064 29.8817 78.1905 29.8662 78.2754 29.8662C78.3604 29.8662 78.4445 29.8817 78.523 29.9119C78.6014 29.9421 78.6727 29.9864 78.7326 30.0422C78.793 30.098 78.8409 30.1643 78.8736 30.2373C78.9062 30.3104 78.9231 30.3886 78.9231 30.4676C78.9231 30.5467 78.9062 30.6249 78.8736 30.6979C78.8409 30.7709 78.793 30.8373 78.7326 30.8931C78.6695 30.951 78.5942 30.9963 78.5114 31.0262C78.4287 31.0561 78.3402 31.0699 78.2514 31.0669C78.0892 31.0625 77.9348 31.0021 77.8183 30.8976ZM13.2252 30.452C13.084 30.3619 12.9871 30.2237 12.9555 30.0676C12.9239 29.9115 12.9603 29.7502 13.0567 29.6189C13.1031 29.5524 13.1632 29.495 13.2335 29.45C13.3039 29.4051 13.3831 29.3734 13.4667 29.3568C13.5503 29.3403 13.6366 29.3392 13.7207 29.3536C13.8047 29.368 13.8849 29.3976 13.9566 29.4407C14.0303 29.485 14.0935 29.5428 14.1423 29.6104C14.1912 29.678 14.2248 29.7541 14.2409 29.8341C14.2571 29.914 14.2556 29.9962 14.2365 30.0756C14.2174 30.1551 14.1811 30.2301 14.1298 30.2961C14.0692 30.3766 13.9886 30.4424 13.8948 30.4881C13.8011 30.5339 13.6968 30.5581 13.5909 30.559C13.4577 30.5509 13.3303 30.5059 13.2252 30.4298V30.452ZM40.9286 29.3382C40.8565 29.2961 40.7942 29.2411 40.7452 29.1765C40.6962 29.112 40.6615 29.039 40.6432 28.962C40.6249 28.8849 40.6232 28.8053 40.6383 28.7276C40.6534 28.6499 40.685 28.5758 40.7313 28.5095C40.7772 28.4427 40.837 28.3849 40.9072 28.3395C40.9774 28.2941 41.0565 28.262 41.1402 28.245C41.2238 28.228 41.3102 28.2265 41.3945 28.2406C41.4787 28.2546 41.5592 28.2839 41.6311 28.3269C41.7757 28.4128 41.8775 28.5482 41.9145 28.7035C41.9515 28.8588 41.9205 29.0213 41.8284 29.1556C41.7691 29.2403 41.6878 29.3099 41.592 29.3582C41.4962 29.4064 41.3889 29.4317 41.2798 29.4318C41.1528 29.4268 41.0304 29.3865 40.9286 29.3159V29.3382ZM80.2099 28.5808C80.1454 28.5293 80.0926 28.4664 80.0545 28.3958C80.0164 28.3252 79.9938 28.2484 79.988 28.1696C79.9821 28.0909 79.9932 28.0119 80.0206 27.9372C80.048 27.8625 80.091 27.7935 80.1474 27.7343C80.2612 27.6154 80.4213 27.543 80.5926 27.533C80.7639 27.5229 80.9325 27.5761 81.0617 27.6808C81.1908 27.7856 81.2699 27.9335 81.2816 28.0921C81.2934 28.2508 81.2368 28.4073 81.1242 28.5274C81.0633 28.59 80.9892 28.6406 80.9065 28.6758C80.8237 28.711 80.7341 28.7303 80.643 28.7323C80.4796 28.7294 80.3239 28.667 80.2099 28.5585V28.5808ZM152.219 28.514C152.135 28.5006 152.054 28.4719 151.983 28.4296C151.911 28.3873 151.849 28.3323 151.8 28.2677C151.751 28.203 151.717 28.1301 151.698 28.0531C151.68 27.9761 151.679 27.8965 151.694 27.819C151.708 27.741 151.739 27.6664 151.784 27.5996C151.83 27.5328 151.889 27.475 151.959 27.4298C152.029 27.3845 152.108 27.3527 152.191 27.3361C152.275 27.3196 152.361 27.3186 152.445 27.3333C152.529 27.3462 152.609 27.3745 152.682 27.4167C152.754 27.4588 152.816 27.5138 152.865 27.5786C152.914 27.6433 152.948 27.7165 152.966 27.7937C152.984 27.871 152.985 27.9507 152.969 28.0284C152.94 28.1648 152.861 28.2878 152.745 28.3763C152.63 28.4648 152.484 28.5135 152.334 28.514C152.296 28.5183 152.257 28.5183 152.219 28.514ZM15.3473 27.8902C15.2265 27.7769 15.1588 27.624 15.1588 27.4648C15.1588 27.3055 15.2265 27.1527 15.3473 27.0393C15.4076 26.9834 15.4793 26.939 15.5581 26.9088C15.637 26.8785 15.7215 26.8629 15.8069 26.8629C15.8922 26.8629 15.9767 26.8785 16.0556 26.9088C16.1344 26.939 16.2061 26.9834 16.2664 27.0393C16.3872 27.1527 16.4549 27.3055 16.4549 27.4648C16.4549 27.624 16.3872 27.7769 16.2664 27.8902C16.2029 27.9473 16.1274 27.9918 16.0447 28.0209C15.9619 28.05 15.8736 28.0632 15.7852 28.0595C15.6214 28.0563 15.465 27.9958 15.3473 27.8902ZM37.9643 27.6853C37.8154 27.6058 37.7059 27.4756 37.6592 27.3225C37.6124 27.1694 37.6321 27.0054 37.7141 26.8655C37.7982 26.726 37.9384 26.623 38.1043 26.5787C38.2701 26.5345 38.4481 26.5527 38.5995 26.6294C38.749 26.7072 38.8592 26.8366 38.9061 26.9893C38.9529 27.1421 38.9327 27.3058 38.8497 27.4447C38.7946 27.5396 38.7126 27.6187 38.6126 27.6737C38.5125 27.7286 38.3982 27.7573 38.2819 27.7566C38.1763 27.7545 38.0726 27.7301 37.9787 27.6853H37.9643ZM34.9134 26.2596C34.8356 26.2269 34.7655 26.1803 34.7072 26.1225C34.6489 26.0647 34.6035 25.9969 34.5735 25.9228C34.5436 25.8487 34.5297 25.7699 34.5327 25.6908C34.5357 25.6118 34.5555 25.5341 34.591 25.4621C34.6254 25.3899 34.6749 25.3246 34.7367 25.2702C34.7985 25.2158 34.8713 25.1733 34.951 25.1451C35.0306 25.1169 35.1155 25.1037 35.2008 25.1061C35.286 25.1085 35.3699 25.1265 35.4475 25.1591C35.5253 25.1918 35.5954 25.2384 35.6537 25.2962C35.712 25.354 35.7575 25.4219 35.7874 25.496C35.8174 25.5701 35.8312 25.6489 35.8282 25.7279C35.8253 25.807 35.8054 25.8847 35.77 25.9566C35.7187 26.0621 35.6355 26.1515 35.5304 26.2139C35.4253 26.2764 35.3029 26.3093 35.1781 26.3086C35.092 26.3078 35.0069 26.2911 34.9278 26.2596H34.9134ZM82.4379 26.1037C82.3053 26.0026 82.2205 25.8575 82.2016 25.6994C82.1827 25.5413 82.2313 25.3826 82.3369 25.2572C82.3905 25.1957 82.4568 25.1446 82.5318 25.1068C82.6068 25.0691 82.6892 25.0454 82.7741 25.0371C82.859 25.0288 82.9448 25.0362 83.0267 25.0586C83.1086 25.0811 83.1848 25.1183 83.2512 25.1681C83.3185 25.2171 83.3746 25.278 83.4162 25.3473C83.4577 25.4166 83.484 25.4929 83.4934 25.5717C83.5028 25.6505 83.4952 25.7302 83.4709 25.8063C83.4467 25.8823 83.4064 25.9531 83.3522 26.0146C83.2913 26.0842 83.2143 26.1404 83.1268 26.1789C83.0394 26.2174 82.9438 26.2374 82.847 26.2373C82.7031 26.2341 82.5644 26.1872 82.4524 26.1037H82.4379ZM17.9555 25.7963C17.8666 25.6603 17.8395 25.4972 17.8801 25.3428C17.9207 25.1883 18.0256 25.055 18.172 24.972C18.3196 24.8895 18.4965 24.8643 18.6641 24.9019C18.8317 24.9394 18.9765 25.0367 19.0671 25.1725C19.1559 25.3085 19.183 25.4715 19.1425 25.626C19.1019 25.7804 18.9969 25.9137 18.8505 25.9967C18.7479 26.0555 18.6295 26.0863 18.5089 26.0858C18.4024 26.0815 18.2988 26.0527 18.2072 26.0022C18.1157 25.9517 18.0391 25.8809 17.9843 25.7963H17.9555ZM152.82 25.3507C152.65 25.3235 152.499 25.235 152.4 25.1047C152.301 24.9743 152.261 24.8129 152.291 24.6557C152.321 24.4982 152.418 24.3583 152.559 24.2665C152.701 24.1746 152.876 24.1384 153.046 24.1656C153.13 24.1791 153.21 24.2077 153.282 24.25C153.354 24.2923 153.416 24.3473 153.465 24.4119C153.514 24.4766 153.548 24.5495 153.566 24.6265C153.584 24.7035 153.586 24.7831 153.571 24.8606C153.546 25.0007 153.467 25.1278 153.35 25.2193C153.233 25.3107 153.084 25.3605 152.931 25.3596L152.82 25.3507ZM31.7615 25.1235C31.5964 25.0753 31.4587 24.9686 31.3784 24.8267C31.2982 24.6847 31.2819 24.5191 31.3332 24.3661C31.3594 24.2909 31.4013 24.2212 31.4566 24.1611C31.5119 24.1009 31.5795 24.0514 31.6555 24.0154C31.7314 23.9794 31.8143 23.9576 31.8994 23.9513C31.9845 23.9449 32.07 23.9542 32.1512 23.9785C32.315 24.0266 32.4516 24.1329 32.5309 24.274C32.6103 24.4151 32.626 24.5796 32.5747 24.7314C32.5328 24.8533 32.45 24.9596 32.3383 25.0349C32.2267 25.1102 32.0921 25.1506 31.9539 25.1502C31.8887 25.1504 31.8238 25.1414 31.7615 25.1235ZM21.0834 24.3483C21.0575 24.2728 21.0483 24.1934 21.0562 24.1145C21.0641 24.0357 21.0889 23.9592 21.1293 23.8894C21.1697 23.8196 21.2247 23.7581 21.2912 23.7083C21.3577 23.6586 21.4343 23.6217 21.5164 23.5998C21.6811 23.554 21.8586 23.5705 22.0101 23.6456C22.1617 23.7208 22.2748 23.8485 22.3249 24.0008C22.3493 24.0765 22.3573 24.156 22.3485 24.2347C22.3397 24.3133 22.3142 24.3896 22.2735 24.4591C22.2329 24.5286 22.1778 24.59 22.1115 24.6398C22.0451 24.6896 21.9688 24.7268 21.887 24.7493C21.8271 24.7704 21.7634 24.781 21.6993 24.7804C21.56 24.7797 21.4247 24.7372 21.3137 24.6593C21.2026 24.5814 21.1218 24.4723 21.0834 24.3483ZM28.4796 24.3973C28.3097 24.372 28.1575 24.2859 28.0557 24.1575C27.9539 24.0291 27.9109 23.8688 27.9358 23.7112C27.9487 23.6332 27.9781 23.5583 28.0225 23.491C28.0668 23.4236 28.1251 23.365 28.194 23.3186C28.2629 23.2722 28.341 23.2389 28.4239 23.2206C28.5068 23.2024 28.5928 23.1995 28.6769 23.2122C28.8477 23.2374 29.0008 23.3242 29.1027 23.4536C29.2046 23.583 29.247 23.7445 29.2207 23.9028C29.1966 24.044 29.119 24.1728 29.0017 24.2659C28.8844 24.3589 28.7351 24.4103 28.5806 24.4107L28.4796 24.3973ZM24.4663 23.6622C24.4617 23.5832 24.4741 23.5041 24.5026 23.4295C24.5311 23.3549 24.5752 23.2863 24.6325 23.2275C24.6897 23.1687 24.7589 23.121 24.836 23.087C24.9132 23.053 24.9969 23.0335 25.0822 23.0295C25.1687 23.0253 25.2553 23.0372 25.3367 23.0644C25.4182 23.0917 25.493 23.1337 25.5567 23.1881C25.6203 23.2425 25.6716 23.3081 25.7075 23.3811C25.7434 23.4541 25.7631 23.533 25.7656 23.6132C25.7701 23.6919 25.7577 23.7708 25.7291 23.8451C25.7006 23.9194 25.6564 23.9878 25.5991 24.0462C25.5418 24.1046 25.4726 24.1519 25.3954 24.1854C25.3183 24.2189 25.2347 24.2379 25.1496 24.2414H25.1159C24.9477 24.2415 24.786 24.1812 24.6649 24.0731C24.5437 23.9651 24.4725 23.8178 24.4663 23.6622ZM84.6178 23.5864C84.5511 23.537 84.4955 23.476 84.4543 23.4067C84.413 23.3374 84.387 23.2612 84.3776 23.1826C84.3682 23.104 84.3757 23.0244 84.3996 22.9484C84.4234 22.8725 84.4633 22.8016 84.5168 22.7399C84.6228 22.616 84.7776 22.5361 84.9472 22.5177C85.1168 22.4993 85.2874 22.544 85.4214 22.6419C85.4889 22.6906 85.5453 22.7512 85.5874 22.8202C85.6295 22.8892 85.6565 22.9652 85.6668 23.0439C85.6771 23.1225 85.6705 23.2023 85.6474 23.2786C85.6243 23.3549 85.5851 23.4262 85.5321 23.4884C85.4711 23.5595 85.3936 23.6168 85.3052 23.6562C85.2169 23.6955 85.1201 23.7158 85.022 23.7156C84.8754 23.7164 84.7328 23.6708 84.6178 23.5864ZM153.431 22.1741C153.346 22.1652 153.264 22.1409 153.189 22.1025C153.114 22.0641 153.048 22.0123 152.995 21.9502C152.942 21.8881 152.902 21.8169 152.879 21.7406C152.855 21.6643 152.849 21.5845 152.859 21.5058C152.88 21.348 152.968 21.2044 153.103 21.106C153.238 21.0077 153.41 20.9624 153.58 20.9801C153.665 20.9889 153.747 21.0133 153.822 21.0517C153.897 21.0902 153.962 21.1421 154.015 21.2042C154.068 21.2664 154.107 21.3377 154.13 21.414C154.153 21.4902 154.159 21.5699 154.148 21.6484C154.132 21.7945 154.057 21.9296 153.939 22.0276C153.82 22.1256 153.667 22.1794 153.508 22.1786H153.431V22.1741ZM86.7833 21.0692C86.7167 21.0195 86.6614 20.9581 86.6207 20.8885C86.58 20.8188 86.5547 20.7424 86.5462 20.6636C86.5376 20.5849 86.5462 20.5053 86.5712 20.4296C86.5962 20.3539 86.6372 20.2836 86.6918 20.2227C86.7458 20.1613 86.8124 20.1106 86.8878 20.0733C86.9632 20.036 87.0458 20.013 87.1309 20.0055C87.216 19.998 87.3018 20.0063 87.3834 20.0298C87.465 20.0533 87.5407 20.0916 87.6062 20.1425C87.6721 20.1921 87.7267 20.2533 87.767 20.3225C87.8073 20.3918 87.8324 20.4677 87.8409 20.5459C87.8494 20.6242 87.8411 20.7032 87.8165 20.7785C87.7919 20.8537 87.7515 20.9238 87.6976 20.9845C87.6366 21.0542 87.5596 21.1103 87.4722 21.1489C87.3848 21.1874 87.2891 21.2074 87.1923 21.2073C87.043 21.2055 86.8988 21.1568 86.7833 21.0692ZM153.027 18.396C153.025 18.3169 153.04 18.2382 153.071 18.1645C153.103 18.0908 153.149 18.0236 153.209 17.9668C153.269 17.91 153.34 17.8647 153.418 17.8336C153.497 17.8025 153.581 17.7862 153.667 17.7856C153.752 17.7838 153.837 17.7978 153.917 17.8268C153.997 17.8557 154.069 17.899 154.131 17.9541C154.192 18.0093 154.241 18.0752 154.274 18.148C154.308 18.2208 154.326 18.299 154.326 18.3782C154.328 18.4572 154.312 18.5356 154.281 18.609C154.249 18.6825 154.202 18.7494 154.143 18.8061C154.083 18.8628 154.012 18.9081 153.934 18.9394C153.856 18.9707 153.772 18.9874 153.686 18.9886C153.599 18.9898 153.513 18.9748 153.432 18.9445C153.352 18.9143 153.279 18.8694 153.217 18.8125C153.156 18.7555 153.107 18.6878 153.075 18.6132C153.042 18.5386 153.026 18.4587 153.027 18.3782V18.396ZM89.0257 18.6232C88.9621 18.5704 88.9103 18.5064 88.8735 18.4349C88.8366 18.3635 88.8153 18.2861 88.8108 18.207C88.8064 18.1279 88.8188 18.0488 88.8474 17.9742C88.876 17.8996 88.9203 17.831 88.9776 17.7723C89.0928 17.6546 89.2536 17.5839 89.4248 17.5755C89.5961 17.5672 89.764 17.6219 89.8919 17.7277C89.9559 17.7803 90.008 17.844 90.0453 17.9153C90.0826 17.9866 90.1044 18.0639 90.1093 18.143C90.1142 18.2221 90.1022 18.3013 90.074 18.376C90.0458 18.4508 90.0019 18.5197 89.9448 18.5787C89.884 18.6408 89.8097 18.6904 89.7268 18.7242C89.6439 18.7579 89.5542 18.7752 89.4636 18.7747C89.2996 18.7723 89.1429 18.7117 89.0257 18.6054V18.6232ZM91.3981 16.2753C91.3377 16.2194 91.2898 16.1531 91.2571 16.0801C91.2245 16.0071 91.2076 15.9288 91.2076 15.8498C91.2076 15.7708 91.2245 15.6925 91.2571 15.6195C91.2898 15.5465 91.3377 15.4802 91.3981 15.4243C91.4584 15.3684 91.5301 15.3241 91.6089 15.2938C91.6878 15.2635 91.7723 15.248 91.8577 15.248C91.943 15.248 92.0275 15.2635 92.1064 15.2938C92.1852 15.3241 92.2569 15.3684 92.3172 15.4243C92.438 15.5377 92.5057 15.6905 92.5057 15.8498C92.5057 16.009 92.438 16.1619 92.3172 16.2753C92.2578 16.3299 92.1871 16.373 92.1095 16.4021C92.0318 16.4312 91.9486 16.4456 91.8649 16.4446C91.776 16.4445 91.688 16.4279 91.6062 16.3958C91.5244 16.3636 91.4503 16.3166 91.3885 16.2575L91.3981 16.2753ZM152.69 15.3174C152.654 15.1634 152.684 15.0023 152.774 14.8683C152.863 14.7344 153.006 14.6382 153.171 14.6001C153.34 14.5684 153.516 14.5998 153.66 14.6874C153.804 14.775 153.905 14.9117 153.941 15.0679C153.979 15.2215 153.949 15.3825 153.859 15.516C153.769 15.6495 153.626 15.7447 153.46 15.7807H153.325C153.174 15.7825 153.027 15.7355 152.909 15.6476C152.792 15.5598 152.711 15.4367 152.681 15.2996L152.69 15.3174ZM93.91 14.0432C93.8539 13.9833 93.811 13.9138 93.784 13.8385C93.757 13.7633 93.7463 13.6838 93.7525 13.6047C93.7588 13.5256 93.7819 13.4485 93.8205 13.3777C93.8591 13.3069 93.9124 13.2438 93.9774 13.1922C94.1077 13.0886 94.2771 13.0369 94.4485 13.0486C94.6198 13.0603 94.7792 13.1344 94.8917 13.2546C95.0042 13.3747 95.0608 13.5312 95.0491 13.6898C95.0374 13.8484 94.9583 13.9963 94.8292 14.1011C94.7118 14.1958 94.5614 14.248 94.4057 14.2481C94.312 14.2491 94.2192 14.2312 94.1336 14.1959C94.0481 14.1605 93.9718 14.1084 93.91 14.0432ZM151.656 12.368C151.62 12.2962 151.6 12.2184 151.597 12.1394C151.594 12.0603 151.608 11.9815 151.638 11.9075C151.669 11.8336 151.715 11.7661 151.774 11.709C151.833 11.6519 151.904 11.6063 151.983 11.5749C152.06 11.5422 152.144 11.5239 152.229 11.5212C152.314 11.5185 152.399 11.5314 152.478 11.5591C152.558 11.5868 152.631 11.6289 152.693 11.6829C152.755 11.7368 152.804 11.8016 152.839 11.8734C152.875 11.9452 152.895 12.023 152.898 12.1021C152.901 12.1811 152.887 12.26 152.856 12.3339C152.826 12.4078 152.78 12.4753 152.721 12.5324C152.661 12.5896 152.591 12.6351 152.512 12.6665C152.429 12.703 152.339 12.7227 152.247 12.7244C152.122 12.7239 151.999 12.6901 151.893 12.6269C151.787 12.5638 151.703 12.4739 151.651 12.368H151.656ZM96.576 11.9759C96.5239 11.9132 96.4858 11.8416 96.4639 11.7651C96.442 11.6887 96.4367 11.609 96.4483 11.5307C96.46 11.4523 96.4883 11.3769 96.5317 11.3088C96.5751 11.2407 96.6327 11.1812 96.7011 11.1339C96.8371 11.0367 97.0092 10.9934 97.1797 11.0134C97.3501 11.0335 97.5051 11.1152 97.6106 11.2408C97.7152 11.368 97.7613 11.5284 97.7388 11.687C97.7163 11.8456 97.6269 11.9895 97.4903 12.0873C97.376 12.1691 97.2353 12.2131 97.0909 12.212C96.9904 12.2126 96.8912 12.1915 96.801 12.1505C96.7108 12.1096 96.6321 12.0498 96.5711 11.9759H96.576ZM99.3718 10.0601C99.3235 9.99467 99.2897 9.92103 99.2723 9.84344C99.2549 9.76585 99.2543 9.68583 99.2704 9.608C99.2865 9.53016 99.319 9.45604 99.3661 9.38989C99.4133 9.32374 99.4741 9.26687 99.545 9.22254C99.6875 9.13373 99.8621 9.10075 100.031 9.1308C100.199 9.16086 100.348 9.25151 100.445 9.38293C100.542 9.51496 100.578 9.67696 100.547 9.83376C100.515 9.99057 100.418 10.1295 100.276 10.2205C100.167 10.288 100.038 10.3236 99.9059 10.323C99.7997 10.3233 99.6951 10.2995 99.6011 10.2537C99.5072 10.2079 99.4268 10.1414 99.367 10.0601H99.3718ZM149.991 9.68143C149.893 9.55048 149.855 9.38923 149.885 9.23251C149.914 9.07579 150.009 8.93618 150.149 8.84384C150.29 8.75185 150.464 8.7152 150.634 8.74193C150.803 8.76865 150.954 8.85658 151.054 8.98641C151.153 9.11699 151.192 9.27858 151.162 9.43565C151.132 9.59271 151.036 9.7324 150.895 9.824C150.788 9.89698 150.658 9.93603 150.525 9.93539C150.42 9.93558 150.316 9.91266 150.222 9.86851C150.128 9.82436 150.047 9.76024 149.986 9.68143H149.991ZM102.278 8.30029C102.192 8.16293 102.167 7.99949 102.209 7.84527C102.251 7.69105 102.357 7.55843 102.504 7.47606C102.654 7.39553 102.831 7.37234 102.998 7.4115C103.166 7.45065 103.31 7.54902 103.4 7.68546C103.486 7.82282 103.511 7.98626 103.469 8.14048C103.427 8.2947 103.32 8.42732 103.173 8.50969C103.071 8.56541 102.955 8.59466 102.837 8.59434C102.723 8.59465 102.612 8.56771 102.513 8.51617C102.414 8.46462 102.332 8.39024 102.274 8.30029H102.278ZM147.82 7.31121C147.759 7.25566 147.711 7.18943 147.678 7.11638C147.645 7.04333 147.628 6.96493 147.628 6.88573C147.628 6.80654 147.645 6.72813 147.678 6.65508C147.711 6.58204 147.759 6.51581 147.82 6.46025C147.88 6.40394 147.951 6.35921 148.029 6.32867C148.108 6.29813 148.192 6.2824 148.277 6.2824C148.363 6.2824 148.447 6.29813 148.525 6.32867C148.604 6.35921 148.675 6.40394 148.735 6.46025C148.795 6.51542 148.844 6.58128 148.877 6.65395C148.91 6.72663 148.927 6.80467 148.927 6.88351C148.927 6.96234 148.91 7.04038 148.877 7.11306C148.844 7.18574 148.795 7.25159 148.735 7.30676C148.675 7.36334 148.604 7.40827 148.526 7.43889C148.447 7.4695 148.363 7.48518 148.277 7.48497C148.192 7.4856 148.107 7.47058 148.028 7.44076C147.948 7.41094 147.876 7.36692 147.815 7.31121H147.82ZM105.3 6.70529C105.221 6.56406 105.205 6.39936 105.256 6.24734C105.308 6.09533 105.422 5.96841 105.575 5.89443C105.65 5.85718 105.732 5.83409 105.817 5.82648C105.902 5.81886 105.987 5.82689 106.069 5.85009C106.15 5.87329 106.226 5.9112 106.291 5.96164C106.357 6.01207 106.411 6.07403 106.45 6.14393C106.53 6.28637 106.545 6.45215 106.493 6.60496C106.44 6.75778 106.325 6.88517 106.171 6.95925C106.079 7.00327 105.977 7.02619 105.873 7.02608C105.754 7.02657 105.638 6.99692 105.536 6.94037C105.434 6.88381 105.351 6.80251 105.296 6.70529H105.3ZM108.414 5.27514C108.344 5.12976 108.339 4.96468 108.4 4.81605C108.462 4.66741 108.584 4.54733 108.741 4.4821C108.898 4.41864 109.076 4.41482 109.236 4.47148C109.396 4.52813 109.526 4.64073 109.598 4.78506C109.633 4.85696 109.652 4.93461 109.655 5.01353C109.657 5.09245 109.643 5.17106 109.613 5.24482C109.582 5.31857 109.536 5.38601 109.478 5.44322C109.419 5.50042 109.348 5.54627 109.27 5.5781C109.188 5.61527 109.097 5.6336 109.006 5.63157C108.879 5.63393 108.755 5.60127 108.649 5.53777C108.542 5.47426 108.459 5.38282 108.409 5.27514H108.414ZM145.241 5.30187C145.17 5.25654 145.109 5.19838 145.062 5.13086C145.016 5.06334 144.984 4.98784 144.97 4.90886C144.956 4.82987 144.959 4.74902 144.979 4.67111C144.999 4.5932 145.036 4.51983 145.087 4.45537C145.188 4.32595 145.341 4.23882 145.511 4.21295C145.681 4.18708 145.856 4.22457 145.996 4.31725C146.066 4.36324 146.124 4.42146 146.169 4.48856C146.214 4.55566 146.244 4.63031 146.257 4.70819C146.271 4.78607 146.267 4.86564 146.247 4.9423C146.227 5.01897 146.191 5.09121 146.141 5.15485C146.081 5.23377 146.002 5.29813 145.91 5.34237C145.818 5.38662 145.715 5.40942 145.611 5.4088C145.477 5.41203 145.345 5.37448 145.236 5.30187H145.241ZM111.609 4.00984C111.578 3.93616 111.563 3.85755 111.566 3.77855C111.568 3.69954 111.587 3.62173 111.622 3.54962C111.657 3.47751 111.707 3.41253 111.769 3.35845C111.831 3.30438 111.904 3.26229 111.984 3.23462C112.064 3.20675 112.149 3.19375 112.235 3.19636C112.32 3.19897 112.404 3.21715 112.482 3.24984C112.56 3.28253 112.63 3.3291 112.688 3.38688C112.746 3.44466 112.792 3.51253 112.822 3.58658C112.852 3.66059 112.866 3.73936 112.863 3.8184C112.86 3.89744 112.841 3.97518 112.805 4.04718C112.77 4.11919 112.72 4.18404 112.657 4.23803C112.595 4.29201 112.522 4.33408 112.442 4.36181C112.367 4.38517 112.289 4.39721 112.211 4.39745C112.08 4.39639 111.952 4.35883 111.845 4.28967C111.738 4.22052 111.656 4.12299 111.609 4.00984ZM142.354 3.67569C142.277 3.64067 142.209 3.59194 142.153 3.53231C142.097 3.47268 142.054 3.40335 142.027 3.32834C142 3.25332 141.99 3.17412 141.996 3.09532C142.003 3.01652 142.026 2.93968 142.065 2.86928C142.103 2.79843 142.155 2.73524 142.22 2.68338C142.284 2.63151 142.359 2.592 142.44 2.56713C142.521 2.54226 142.607 2.53254 142.692 2.53852C142.777 2.5445 142.86 2.56606 142.936 2.60196C143.012 2.63698 143.081 2.68572 143.137 2.74534C143.193 2.80497 143.235 2.8743 143.262 2.94931C143.289 3.02433 143.3 3.10353 143.293 3.18234C143.287 3.26114 143.263 3.33797 143.225 3.40837C143.17 3.50793 143.087 3.59149 142.984 3.64972C142.881 3.70794 142.763 3.73853 142.642 3.73806C142.543 3.74387 142.444 3.72704 142.354 3.68906V3.67569ZM114.881 2.94502C114.831 2.79259 114.848 2.62813 114.929 2.48723C115.009 2.34632 115.146 2.24029 115.31 2.19208C115.474 2.14715 115.651 2.16344 115.803 2.23749C115.955 2.31153 116.07 2.43749 116.123 2.5886C116.148 2.66407 116.157 2.74342 116.149 2.82212C116.141 2.90082 116.117 2.97732 116.077 3.04724C116.037 3.11717 115.983 3.17915 115.917 3.22965C115.852 3.28015 115.776 3.31817 115.695 3.34154C115.631 3.36267 115.564 3.37323 115.497 3.37273C115.359 3.37155 115.224 3.32941 115.113 3.25246C115.003 3.17552 114.921 3.0678 114.881 2.94502ZM139.231 2.49949C139.149 2.4748 139.074 2.43547 139.009 2.38377C138.944 2.33206 138.891 2.269 138.853 2.1982C138.814 2.12741 138.791 2.05027 138.785 1.97123C138.779 1.89219 138.79 1.81281 138.817 1.73763C138.841 1.66073 138.882 1.58917 138.937 1.52718C138.992 1.46518 139.06 1.41399 139.137 1.37663C139.214 1.33926 139.298 1.31648 139.384 1.30961C139.47 1.30275 139.557 1.31194 139.64 1.33666C139.721 1.36303 139.797 1.40429 139.861 1.45802C139.926 1.51175 139.978 1.57686 140.014 1.64951C140.051 1.72216 140.072 1.80089 140.075 1.88107C140.079 1.96124 140.065 2.04123 140.034 2.11633C139.992 2.23662 139.909 2.34141 139.799 2.41581C139.688 2.4902 139.555 2.5304 139.418 2.53068C139.355 2.52752 139.292 2.51705 139.231 2.49949ZM118.216 2.05396C118.196 1.97702 118.193 1.89717 118.206 1.81899C118.219 1.74081 118.249 1.66583 118.294 1.59837C118.339 1.5309 118.397 1.47227 118.466 1.42583C118.536 1.37939 118.614 1.34606 118.697 1.32775C118.78 1.30856 118.867 1.30491 118.952 1.317C119.036 1.32909 119.117 1.35668 119.19 1.39816C119.263 1.43964 119.327 1.49417 119.377 1.55858C119.427 1.62299 119.462 1.69597 119.482 1.77328C119.521 1.9286 119.492 2.09196 119.402 2.22791C119.312 2.36386 119.168 2.46145 119 2.49949C118.951 2.50411 118.901 2.50411 118.851 2.49949C118.708 2.49985 118.569 2.457 118.454 2.37742C118.339 2.29783 118.256 2.18585 118.216 2.05842V2.05396ZM121.613 1.33666C121.598 1.25904 121.599 1.17927 121.616 1.10203C121.634 1.02478 121.669 0.951633 121.718 0.886876C121.766 0.82212 121.829 0.767064 121.901 0.724947C121.973 0.682831 122.054 0.654503 122.138 0.641631C122.222 0.627535 122.308 0.628939 122.391 0.64576C122.474 0.66258 122.553 0.694486 122.623 0.739635C122.692 0.784783 122.752 0.842282 122.797 0.908811C122.843 0.975341 122.874 1.04958 122.889 1.12726C122.918 1.28429 122.88 1.44576 122.781 1.57669C122.683 1.70762 122.533 1.79746 122.364 1.82674H122.249C122.097 1.8278 121.95 1.77914 121.834 1.68942C121.718 1.59969 121.64 1.4747 121.613 1.33666ZM135.949 1.69308C135.78 1.66288 135.631 1.57177 135.534 1.43977C135.437 1.30778 135.401 1.1457 135.434 0.989144C135.471 0.837751 135.57 0.705462 135.71 0.619937C135.849 0.534413 136.02 0.502277 136.185 0.530248C136.354 0.560454 136.503 0.651563 136.599 0.783556C136.696 0.91555 136.732 1.07763 136.699 1.23419C136.671 1.37221 136.592 1.49677 136.475 1.58629C136.358 1.6758 136.211 1.72462 136.059 1.72427L135.949 1.69308ZM125.04 0.85994C125.024 0.701695 125.076 0.543979 125.185 0.421259C125.294 0.298539 125.451 0.220793 125.622 0.205011C125.793 0.188744 125.965 0.235768 126.099 0.33587C126.233 0.435972 126.32 0.581069 126.339 0.739647C126.355 0.898375 126.303 1.05661 126.194 1.18004C126.085 1.30347 125.928 1.38215 125.757 1.39903H125.689C125.529 1.39693 125.375 1.34119 125.255 1.2421C125.136 1.14302 125.059 1.00727 125.04 0.85994ZM132.58 1.30547C132.495 1.29985 132.412 1.27862 132.336 1.243C132.259 1.20738 132.192 1.15809 132.136 1.09798C132.08 1.03788 132.038 0.968161 132.012 0.892879C131.986 0.817598 131.976 0.738253 131.984 0.659452C131.988 0.579583 132.009 0.501324 132.047 0.429389C132.085 0.357453 132.138 0.29333 132.203 0.240881C132.268 0.188431 132.344 0.148741 132.426 0.1242C132.509 0.0996591 132.595 0.0907755 132.681 0.0980841C132.768 0.101442 132.853 0.120866 132.931 0.1552C133.009 0.189534 133.079 0.238077 133.136 0.297937C133.194 0.357798 133.238 0.427753 133.265 0.503638C133.293 0.579522 133.304 0.659785 133.297 0.739647C133.284 0.890941 133.21 1.03212 133.09 1.13524C132.969 1.23837 132.812 1.29594 132.648 1.29656H132.6L132.58 1.30547ZM128.485 0.614899C128.485 0.533993 128.501 0.453776 128.534 0.378914C128.568 0.304051 128.616 0.236037 128.678 0.178826C128.74 0.121615 128.813 0.0763496 128.894 0.0456614C128.975 0.0149731 129.062 -0.000525256 129.149 6.74869e-05C129.234 -0.00111144 129.318 0.013166 129.397 0.0420843C129.475 0.0710026 129.547 0.113995 129.608 0.168607C129.669 0.223219 129.717 0.28838 129.751 0.360369C129.784 0.432358 129.802 0.509764 129.804 0.588167C129.806 0.66731 129.792 0.746134 129.761 0.820051C129.73 0.893968 129.684 0.9615 129.625 1.01872C129.566 1.07594 129.495 1.12169 129.417 1.15333C129.338 1.18497 129.254 1.20185 129.168 1.203C129.082 1.20658 128.995 1.19414 128.914 1.16641C128.832 1.13868 128.757 1.09621 128.694 1.04147C128.63 0.986736 128.579 0.920831 128.543 0.847596C128.507 0.77436 128.488 0.695259 128.485 0.614899Z" fill="#6D7CFF"/>
<g opacity="0.1">
<path d="M178.501 42.1548C179.373 42.1548 180.08 41.4486 180.08 40.5774C180.08 39.7062 179.373 39 178.501 39C177.629 39 176.922 39.7062 176.922 40.5774C176.922 41.4486 177.629 42.1548 178.501 42.1548Z" fill="white"/>
<path d="M83.4193 21.5977C83.4193 21.8656 83.3398 22.1275 83.1909 22.3502C83.0419 22.5729 82.8302 22.7466 82.5825 22.8491C82.3347 22.9516 82.0622 22.9784 81.7992 22.9262C81.5362 22.8739 81.2947 22.7449 81.1051 22.5555C80.9155 22.366 80.7864 22.1247 80.7341 21.8619C80.6817 21.5992 80.7086 21.3268 80.8112 21.0793C80.9138 20.8318 81.0876 20.6203 81.3105 20.4714C81.5334 20.3226 81.7955 20.2432 82.0637 20.2432C82.4229 20.2443 82.767 20.3874 83.021 20.6411C83.275 20.8949 83.4182 21.2388 83.4193 21.5977Z" fill="white"/>
<path d="M41.9462 16.0809C41.942 16.2494 41.8881 16.413 41.7913 16.5512C41.6945 16.6893 41.5591 16.7958 41.402 16.8574C41.2449 16.9191 41.0731 16.933 40.9081 16.8975C40.7431 16.8621 40.5922 16.7788 40.4743 16.6581C40.3565 16.5374 40.2769 16.3846 40.2455 16.219C40.214 16.0533 40.2322 15.882 40.2978 15.7266C40.3633 15.5712 40.4732 15.4386 40.6138 15.3453C40.7544 15.252 40.9194 15.2022 41.0882 15.2021C41.3177 15.2077 41.536 15.3028 41.6963 15.467C41.8566 15.6312 41.9463 15.8515 41.9462 16.0809Z" fill="white"/>
<path d="M40.974 46.8068C40.974 46.9969 40.9175 47.1827 40.8117 47.3407C40.7059 47.4987 40.5556 47.6218 40.3797 47.6943C40.2039 47.7669 40.0104 47.7856 39.8239 47.7482C39.6374 47.7108 39.4662 47.619 39.3319 47.4843C39.1977 47.3495 39.1065 47.1781 39.0699 46.9915C39.0334 46.805 39.053 46.6118 39.1264 46.4364C39.1998 46.2611 39.3236 46.1114 39.4822 46.0064C39.6408 45.9014 39.827 45.8458 40.0173 45.8467C40.1433 45.8467 40.268 45.8716 40.3844 45.9199C40.5007 45.9682 40.6064 46.039 40.6953 46.1282C40.7842 46.2174 40.8545 46.3233 40.9024 46.4397C40.9502 46.5562 40.9745 46.681 40.974 46.8068Z" fill="white"/>
<path d="M18.7337 66.9439C18.7337 67.3152 18.6235 67.6782 18.417 67.9869C18.2105 68.2957 17.9171 68.5363 17.5737 68.6784C17.2304 68.8205 16.8526 68.8577 16.4881 68.7852C16.1236 68.7128 15.7887 68.534 15.5259 68.2714C15.2632 68.0089 15.0842 67.6743 15.0117 67.3101C14.9392 66.9459 14.9764 66.5684 15.1186 66.2254C15.2608 65.8823 15.5017 65.5891 15.8107 65.3828C16.1197 65.1765 16.483 65.0664 16.8546 65.0664C17.353 65.0664 17.8309 65.2642 18.1833 65.6163C18.5357 65.9684 18.7337 66.4459 18.7337 66.9439Z" fill="white"/>
<path d="M131.846 21.5334C131.846 21.7277 131.788 21.9176 131.68 22.0791C131.572 22.2407 131.418 22.3665 131.238 22.4406C131.059 22.5148 130.861 22.534 130.67 22.4958C130.48 22.4575 130.305 22.3636 130.167 22.2259C130.03 22.0882 129.937 21.9129 129.899 21.7222C129.862 21.5315 129.882 21.334 129.957 21.1547C130.032 20.9755 130.159 20.8224 130.321 20.7151C130.483 20.6078 130.673 20.5509 130.868 20.5518C131.128 20.5529 131.376 20.6568 131.56 20.8408C131.743 21.0247 131.846 21.2738 131.846 21.5334Z" fill="white"/>
<path d="M163.262 22.2109C163.383 22.5857 163.591 22.9261 163.87 23.2042C164.149 23.4822 164.491 23.6898 164.866 23.8098C164.49 23.9298 164.148 24.138 163.869 24.4168C163.59 24.6957 163.382 25.0372 163.262 25.4129C163.142 25.0379 162.934 24.6968 162.655 24.418C162.377 24.1392 162.036 23.9307 161.661 23.8098C162.036 23.6893 162.376 23.4814 162.655 23.2034C162.933 22.9254 163.141 22.5852 163.262 22.2109Z" fill="white"/>
<path d="M184.933 151.823C185.054 152.198 185.263 152.538 185.542 152.816C185.821 153.095 186.162 153.302 186.538 153.422C186.162 153.543 185.821 153.752 185.542 154.031C185.263 154.309 185.055 154.65 184.933 155.025C184.812 154.651 184.604 154.31 184.326 154.032C184.048 153.753 183.707 153.544 183.333 153.422C183.708 153.302 184.048 153.094 184.326 152.816C184.605 152.538 184.813 152.197 184.933 151.823Z" fill="white"/>
<path d="M189.905 78.04C190.026 78.4154 190.234 78.7566 190.513 79.0354C190.792 79.3141 191.134 79.5225 191.509 79.6432C191.134 79.7631 190.793 79.9707 190.514 80.2487C190.235 80.5268 190.026 80.8673 189.905 81.242C189.784 80.8678 189.576 80.5276 189.298 80.2496C189.02 79.9715 188.679 79.7637 188.305 79.6432C188.679 79.5216 189.02 79.3129 189.298 79.0342C189.576 78.7555 189.784 78.4147 189.905 78.04Z" fill="white"/>
<path d="M144.541 30.7998C144.662 31.174 144.87 31.5142 145.148 31.7923C145.426 32.0703 145.767 32.2781 146.141 32.3986C145.767 32.5192 145.426 32.727 145.148 33.005C144.87 33.283 144.662 33.6232 144.541 33.9975C144.421 33.6232 144.212 33.283 143.934 33.005C143.656 32.727 143.315 32.5192 142.941 32.3986C143.315 32.2781 143.656 32.0703 143.934 31.7923C144.212 31.5142 144.421 31.174 144.541 30.7998Z" fill="white"/>
<path d="M102.348 8.18164C102.468 8.55668 102.675 8.89773 102.954 9.17652C103.232 9.45531 103.573 9.66382 103.948 9.78476C103.573 9.90528 103.233 10.1131 102.954 10.3912C102.676 10.6692 102.468 11.0094 102.348 11.3836C102.227 11.0094 102.019 10.6692 101.741 10.3912C101.462 10.1131 101.122 9.90528 100.747 9.78476C101.122 9.66382 101.463 9.45531 101.741 9.17652C102.02 8.89773 102.227 8.55668 102.348 8.18164Z" fill="white"/>
<path d="M18.7333 24.4492C18.8539 24.8235 19.0619 25.1637 19.3402 25.4417C19.6184 25.7197 19.9589 25.9275 20.3335 26.0481C19.9589 26.1686 19.6184 26.3764 19.3402 26.6544C19.0619 26.9325 18.8539 27.2726 18.7333 27.6469C18.6118 27.2717 18.4025 26.9309 18.1227 26.6528C17.8429 26.3747 17.5007 26.1674 17.1245 26.0481C17.4999 25.9281 17.8412 25.7205 18.1202 25.4425C18.3993 25.1644 18.608 24.8239 18.729 24.4492H18.7333Z" fill="white"/>
<path d="M63.6078 20.1123C63.7272 20.4881 63.9347 20.83 64.2131 21.1096C64.4914 21.3892 64.8325 21.5984 65.208 21.7197C64.8334 21.8402 64.4929 22.0481 64.2147 22.3261C63.9364 22.6041 63.7284 22.9443 63.6078 23.3185C63.4871 22.9443 63.2791 22.6041 63.0009 22.3261C62.7226 22.0481 62.3821 21.8402 62.0076 21.7197C62.3821 21.5992 62.7226 21.3913 63.0009 21.1133C63.2791 20.8353 63.4871 20.4951 63.6078 20.1209V20.1123Z" fill="white"/>
<path d="M16.5807 99.9414C16.7017 100.316 16.9104 100.657 17.1894 100.935C17.4685 101.213 17.8098 101.42 18.1852 101.54C17.8074 101.662 17.4646 101.873 17.1854 102.155C16.9061 102.437 16.6988 102.782 16.5807 103.161C16.463 102.782 16.2563 102.438 15.9778 102.156C15.6994 101.874 15.3574 101.663 14.9805 101.54H14.9805C15.355 101.42 15.6955 101.212 15.9738 100.934C16.252 100.656 16.46 100.316 16.5807 99.9414Z" fill="white"/>
</g>
<g opacity="0.25">
<path d="M97.9752 173.495C152.085 173.495 195.95 170.338 195.95 166.443C195.95 162.549 152.085 159.392 97.9752 159.392C43.865 159.392 0 162.549 0 166.443C0 170.338 43.865 173.495 97.9752 173.495Z" fill="#2D2D2D"/>
<path d="M88.185 47.8713C80.5323 20.1205 46.0605 11.1684 26.3164 31.9185C26.0323 32.2166 25.7482 32.5194 25.4687 32.8501C-2.85488 63.6423 9.74427 140.565 69.3818 158.096C131.255 176.266 190.212 142.838 193.668 111.445C197.124 80.0515 169.854 70.1864 127.529 78.9662C103.635 83.9267 92.9452 65.1468 88.185 47.8713Z" fill="#2D2D2D"/>
</g>
<path d="M73.1577 167.242C72.9423 167.243 72.7293 167.197 72.5336 167.107C72.3506 167.026 72.1855 166.909 72.0477 166.764C71.9099 166.619 71.8022 166.448 71.7308 166.261C71.6594 166.074 71.6256 165.874 71.6315 165.674C71.6374 165.474 71.6828 165.277 71.7651 165.095L83.1905 139.594C83.2724 139.41 83.3897 139.245 83.5357 139.107C83.6816 138.968 83.8533 138.86 84.0411 138.788C84.2288 138.717 84.4288 138.683 84.6297 138.688C84.8306 138.694 85.0284 138.739 85.2119 138.821C85.3954 138.903 85.561 139.02 85.6991 139.166C85.8373 139.312 85.9454 139.483 86.0172 139.671C86.089 139.859 86.1231 140.059 86.1176 140.26C86.1121 140.461 86.0671 140.659 85.9851 140.842L74.5597 166.343C74.439 166.613 74.242 166.842 73.9929 167.002C73.7439 167.162 73.4536 167.245 73.1577 167.242Z" fill="#4A4A4A"/>
<path d="M127.477 167.242C127.692 167.242 127.905 167.196 128.101 167.107C128.469 166.941 128.756 166.636 128.899 166.259C129.042 165.882 129.03 165.463 128.865 165.095L117.439 139.594C117.357 139.41 117.24 139.245 117.094 139.107C116.948 138.968 116.776 138.86 116.589 138.788C116.401 138.717 116.201 138.683 116 138.688C115.799 138.694 115.601 138.739 115.418 138.821C115.234 138.903 115.069 139.02 114.93 139.166C114.792 139.312 114.684 139.483 114.612 139.671C114.541 139.859 114.507 140.059 114.512 140.26C114.518 140.461 114.563 140.659 114.645 140.842L126.07 166.343C126.192 166.613 126.39 166.842 126.64 167.002C126.889 167.161 127.18 167.245 127.477 167.242Z" fill="#4A4A4A"/>
<path d="M144.951 132.26C166.169 111.041 166.169 76.6402 144.951 55.4221C123.733 34.204 89.3319 34.2039 68.1138 55.422C46.8957 76.6402 46.8957 111.041 68.1138 132.26C89.3319 153.478 123.733 153.478 144.951 132.26Z" fill="#DE465D"/>
<path d="M138.736 132.257C159.954 111.039 159.954 76.6372 138.736 55.4191C117.518 34.201 83.1169 34.201 61.8988 55.4191C40.6806 76.6372 40.6807 111.039 61.8988 132.257C83.1169 153.475 117.518 153.475 138.736 132.257Z" fill="#FF5B74"/>
<path d="M130.684 124.204C147.455 107.433 147.455 80.2425 130.684 63.4718C113.913 46.701 86.7226 46.701 69.9518 63.4717C53.1811 80.2425 53.1811 107.433 69.9518 124.204C86.7226 140.975 113.913 140.975 130.684 124.204Z" fill="#FFF9FF"/>
<path d="M107.968 124.447C124.876 120.221 135.158 103.09 130.933 86.1816C126.708 69.2736 109.576 58.992 92.6677 63.2171C75.7597 67.4421 65.4781 84.5739 69.7031 101.482C73.9282 118.39 91.0599 128.672 107.968 124.447Z" fill="#FF5B74"/>
<path d="M105.957 113.195C116.651 110.08 122.795 98.8852 119.68 88.1912C116.565 77.4972 105.371 71.3532 94.6767 74.4682C83.9827 77.5832 77.8387 88.7776 80.9537 99.4716C84.0687 110.166 95.2631 116.31 105.957 113.195Z" fill="#FFF9FF"/>
<path d="M102.702 102.29C101.032 102.764 99.2585 102.731 97.6068 102.196C95.955 101.661 94.499 100.648 93.4231 99.2853C92.3472 97.9226 91.6997 96.2714 91.5626 94.5406C91.4254 92.8098 91.8048 91.0772 92.6527 89.5621C93.5006 88.047 94.7789 86.8174 96.3258 86.0291C97.8727 85.2407 99.6187 84.9289 101.343 85.1332C103.067 85.3375 104.692 86.0487 106.012 87.1768C107.332 88.3048 108.287 89.7991 108.757 91.4704C109.385 93.708 109.099 96.103 107.965 98.1309C106.83 100.159 104.938 101.654 102.702 102.29Z" fill="#FF5B74"/>
<path d="M101.725 92.8645L49.4698 34.5172C49.3455 34.3689 49.1927 34.2472 49.0204 34.1591C48.8481 34.0711 48.6599 34.0186 48.4669 34.0047C48.274 33.9908 48.0802 34.0159 47.8971 34.0783C47.7139 34.1408 47.5453 34.2395 47.401 34.3684C47.2568 34.4973 47.1399 34.654 47.0574 34.8289C46.9749 35.0039 46.9283 35.1937 46.9206 35.387C46.9128 35.5803 46.944 35.7732 47.0123 35.9543C47.0805 36.1353 47.1845 36.3008 47.3179 36.4408L99.6801 94.9139C100.167 94.7746 100.611 94.5132 100.968 94.1546C101.326 93.7959 101.587 93.3519 101.725 92.8645Z" fill="#4A4A4A"/>
<path d="M72.1276 64.1488L55.6532 63.1847L46.906 53.4128L51.3355 53.0401L43.4779 49.5841L31.1536 35.8252L47.572 36.7288L72.1276 64.1488Z" fill="#00C48C"/>
<path d="M74.2867 62.2242L75.1298 45.7452L66.3826 35.978L65.5256 40.3376L62.9545 32.1493L50.6302 18.3857L49.7266 34.7996L74.2867 62.2242Z" fill="#00C48C"/>
<path d="M22.4892 159.485C22.403 159.487 22.3173 159.471 22.2372 159.439C22.1571 159.407 22.0844 159.359 22.0233 159.298C21.9625 159.237 21.915 159.165 21.8838 159.085C21.8525 159.004 21.8381 158.919 21.8416 158.833C21.837 158.791 21.837 158.749 21.8416 158.707C21.8416 158.67 21.8649 158.628 21.8789 158.586C21.8947 158.55 21.9134 158.516 21.9348 158.484C21.9586 158.449 21.9851 158.416 22.014 158.386C22.0447 158.357 22.0774 158.331 22.1118 158.307C22.1455 158.284 22.1814 158.266 22.219 158.251L22.3355 158.214C22.4172 158.2 22.5007 158.2 22.5824 158.214L22.6989 158.251C22.736 158.267 22.7719 158.285 22.8061 158.307C22.8387 158.335 22.876 158.358 22.9039 158.386C22.9328 158.416 22.9593 158.449 22.9831 158.484C23.0062 158.515 23.0251 158.55 23.039 158.586C23.039 158.628 23.067 158.67 23.0763 158.707C23.0809 158.749 23.0809 158.791 23.0763 158.833C23.0789 158.919 23.0637 159.005 23.0316 159.085C22.9995 159.165 22.9513 159.238 22.8899 159.298C22.7828 159.406 22.6407 159.472 22.4892 159.485Z" fill="#7048A3"/>
<path d="M20.5823 161.219L22.4972 156.653L26.1408 158.771L23.1123 162.694L20.5823 161.219Z" fill="#FBBEBE"/>
<path d="M42.5054 164.277L41.6062 158.534H47.5142L46.6149 164.277H42.5054Z" fill="#FBBEBE"/>
<path d="M21.3661 107.965C21.9299 109.547 22.4983 111.297 21.8879 112.861C22.3539 113.699 21.7482 115.006 20.9887 115.569C20.6013 115.842 20.1315 115.973 19.6588 115.94C19.186 115.907 18.7391 115.712 18.3935 115.388C17.9052 114.834 17.6237 114.129 17.5967 113.391C17.4017 111.414 17.9497 109.435 19.1343 107.839C19.1343 107.346 19.3766 106.792 19.8705 106.764C20.3644 106.736 21.2123 107.495 21.3661 107.965Z" fill="#FBBEBE"/>
<path d="M58.016 54.3542C57.7308 53.8739 57.6312 53.306 57.7359 52.7575C57.8406 52.209 58.1423 51.7176 58.5844 51.3757C58.3607 50.2914 59.1482 48.8859 60.2478 48.737C60.5961 48.6765 60.9548 48.7355 61.2653 48.9045C61.5758 49.0735 61.8198 49.3425 61.9577 49.6678C62.049 50.0731 62.0232 50.4959 61.8832 50.8871C61.4168 52.5572 60.5334 54.0816 59.3159 55.3175C58.8268 55.0792 58.3861 54.7526 58.016 54.3542Z" fill="#FBBEBE"/>
<path d="M21.8744 109.562C22.9197 101.795 26.5478 94.6051 32.1761 89.1457C33.6298 87.7495 35.2093 86.4604 36.5325 84.934C37.8558 83.4075 38.9227 81.5739 39.1091 79.5634C39.239 78.5535 39.0257 77.5293 38.5034 76.6548C38.2367 76.2252 37.8561 75.8778 37.4038 75.651C36.9514 75.4243 36.445 75.3272 35.9408 75.3704C32.8424 75.8078 30.2332 78.1022 28.2204 80.4896C21.8626 88.0884 18.4571 97.7198 18.6269 107.621C19.5017 108.565 20.6286 109.238 21.8744 109.562Z" fill="#6D7CFF"/>
<path opacity="0.2" d="M21.8744 109.562C22.9197 101.795 26.5478 94.6051 32.1761 89.1457C33.6298 87.7495 35.2093 86.4604 36.5325 84.934C37.8558 83.4075 38.9227 81.5739 39.1091 79.5634C39.239 78.5535 39.0257 77.5293 38.5034 76.6548C38.2367 76.2252 37.8561 75.8778 37.4038 75.651C36.9514 75.4243 36.445 75.3272 35.9408 75.3704C32.8424 75.8078 30.2332 78.1022 28.2204 80.4896C21.8626 88.0884 18.4571 97.7198 18.6269 107.621C19.5017 108.565 20.6286 109.238 21.8744 109.562Z" fill="black"/>
<path d="M41.5776 122.425C40.5326 135.704 35.1896 148.282 26.3557 158.26C24.9831 157.767 23.7505 156.949 22.7634 155.877C24.2591 147.737 30.167 140.659 30.8193 132.412C31.1641 128.019 30.0133 123.663 29.4588 119.293C28.9044 114.923 27.6231 108.352 30.1996 104.773C34.0435 106.784 38.7308 111.577 40.9626 115.291C41.742 116.502 42.2916 117.846 42.584 119.256C42.8309 120.671 41.6894 121.029 41.5776 122.425Z" fill="#115B9F"/>
<path opacity="0.15" d="M41.5776 122.425C40.5326 135.704 35.1896 148.282 26.3557 158.26C24.9831 157.767 23.7505 156.949 22.7634 155.877C24.2591 147.737 30.167 140.659 30.8193 132.412C31.1641 128.019 30.0133 123.663 29.4588 119.293C28.9044 114.923 27.6231 108.352 30.1996 104.773C34.0435 106.784 38.7308 111.577 40.9626 115.291C41.742 116.502 42.2916 117.846 42.584 119.256C42.8309 120.671 41.6894 121.029 41.5776 122.425Z" fill="#0F0F0F"/>
<path opacity="0.1" d="M42.5842 119.255C42.2918 117.846 41.7421 116.502 40.9628 115.29C38.7776 111.66 34.2534 107.002 30.4607 104.917L29.9389 105.168C27.8748 108.556 28.7694 114.187 29.3332 118.353C29.4543 118.571 29.5801 118.785 29.7059 118.999C31.8213 122.625 34.533 125.892 36.4246 129.633C37.6665 131.982 38.3909 134.568 38.5493 137.219C40.1728 132.433 41.1902 127.463 41.5778 122.425C41.6896 121.028 42.8311 120.67 42.5842 119.255Z" fill="#0F0F0F"/>
<path d="M43.777 104.741C48.2124 122.778 49.5687 141.434 47.7886 159.922H41.7316C40.0635 153.141 38.54 145.695 38.6052 138.742C38.6425 134.437 39.3507 130.044 38.2557 125.879C37.2819 122.156 34.9663 118.991 33.042 115.673C31.1177 112.355 29.5196 108.548 30.2185 104.774C34.6708 103.684 39.3194 103.673 43.777 104.741Z" fill="#115B9F"/>
<path opacity="0.1" d="M44.527 107.998C44.4478 107.64 44.3732 107.282 44.2894 106.928C44.2055 106.574 44.1449 106.305 44.0704 105.997C42.6726 105.569 41.559 104.908 39.877 104.494C38.8679 104.241 37.8417 104.063 36.8066 103.959C35.465 103.979 34.1263 104.089 32.7996 104.289C31.576 104.666 30.4477 105.301 29.4915 106.151C29.4356 106.286 29.3797 106.416 29.3284 106.556V106.588C29.2492 106.816 29.1793 107.054 29.1141 107.296V107.352C29.0489 107.594 28.9976 107.84 28.9464 108.096V108.133C28.8041 108.948 28.7247 109.773 28.7087 110.6V110.651C28.7087 110.926 28.7087 111.196 28.7087 111.47V111.549C28.7087 111.824 28.7087 112.098 28.7087 112.373V112.424C28.7367 112.997 28.7786 113.569 28.8345 114.137V114.183C28.8578 114.458 28.8905 114.728 28.9184 114.998C28.9207 115.03 28.9207 115.063 28.9184 115.096C28.951 115.356 28.979 115.617 29.0116 115.868V115.994L29.1094 116.734C29.1094 116.78 29.1094 116.827 29.1094 116.873C29.1094 117.027 29.1514 117.171 29.17 117.339C35.2917 116.289 40.783 112.949 44.527 107.998Z" fill="#0F0F0F"/>
<path d="M27.6564 111.722C32.8143 113.221 40.3204 108.977 45.3617 107.138C44.961 101.81 43.7542 96.2298 43.3535 90.8966C42.9156 85.1305 42.3332 78.9688 38.6943 74.4686C37.208 72.6303 33.8393 73.6914 32.0827 75.2318C30.3262 76.7722 29.3338 79.02 28.6069 81.2539C25.7461 89.9937 25.1917 102.88 27.6564 111.722Z" fill="#6D7CFF"/>
<path opacity="0.2" d="M43.3567 90.8964C42.97 85.8191 42.4715 80.4346 39.8669 76.1484C38.7697 76.4392 37.7178 76.8792 36.7406 77.4562C34.7417 78.601 33.0784 80.4299 31.0376 81.491C34.5514 85.4115 38.7314 88.6807 43.3847 91.1477C43.3707 91.0639 43.3614 90.9801 43.3567 90.8964Z" fill="black"/>
<path d="M34.4127 67.757C33.9979 70.1353 33.772 72.5426 33.7371 74.9565C34.9159 75.2776 36.1832 75.7197 37.3806 75.4824C37.7309 73.0168 37.8464 70.5236 37.7254 68.0363C36.6583 67.6851 35.5236 67.5894 34.4127 67.757Z" fill="#FBBEBE"/>
<path opacity="0.2" d="M33.908 71.782C35.0365 72.5829 36.2788 73.2103 37.5935 73.6435C37.7547 71.9173 37.8045 70.1825 37.7425 68.4498C37.6083 68.2457 37.4521 68.0568 37.2766 67.8867L37.2393 67.8588C36.3238 67.641 35.3752 67.5984 34.4438 67.7331C34.1922 69.0921 34.0244 70.4324 33.908 71.782Z" fill="black"/>
<path d="M34.5383 63.0924C37.2308 64.5606 39.2961 66.9577 40.3484 69.8358C39.7231 70.9573 38.6854 71.7918 37.455 72.1627C36.5663 72.4449 35.6236 72.514 34.7032 72.3644C33.7828 72.2148 32.9106 71.8508 32.1574 71.3017C31.4183 70.7332 30.8575 69.9653 30.5413 69.0887C30.2251 68.2121 30.1667 67.2634 30.3729 66.3547C30.8435 64.5816 32.9029 62.2082 34.5383 63.0924Z" fill="#FBBEBE"/>
<path d="M60.1492 54.5492C58.7048 60.0686 56.9483 65.5462 54.2133 70.549C51.4783 75.5519 47.6903 80.094 42.84 83.0864C41.3523 84.0715 39.6774 84.74 37.9198 85.0503C37.0399 85.1963 36.1394 85.1606 35.2738 84.9453C34.4083 84.73 33.5962 84.3396 32.8877 83.7984C31.5133 82.6675 29.8778 80.1219 30.9029 78.6792C32.1935 76.8642 34.4812 76.1289 36.5499 75.3052C41.385 73.3576 45.7584 70.4206 49.3887 66.6832C53.019 62.9457 55.8258 58.4906 57.6285 53.6045L60.1492 54.5492Z" fill="#6D7CFF"/>
<path d="M37.2914 63.9871C37.308 64.1178 37.2966 64.2504 37.2581 64.3764C37.2195 64.5024 37.1546 64.6187 37.0677 64.7177C36.8957 64.9063 36.6924 65.0637 36.4667 65.1831C35.2783 65.8944 33.9321 66.3005 32.5482 66.3652C32.7771 66.7154 32.9287 67.1102 32.993 67.5235C33.0573 67.9367 33.0327 68.3589 32.921 68.7619C33.3869 69.1156 33.6944 69.5717 34.137 69.9254C33.6872 69.7051 33.2196 69.523 32.7393 69.3809C32.6226 69.313 32.4899 69.2773 32.3549 69.2773C32.2198 69.2773 32.0872 69.313 31.9705 69.3809C31.899 69.4527 31.8497 69.5434 31.8282 69.6424C31.8067 69.7414 31.8141 69.8444 31.8493 69.9393C31.927 70.1213 32.0487 70.2812 32.2034 70.4047C32.6454 70.8106 33.1845 71.0959 33.769 71.2331C33.9127 71.8047 33.9238 72.4016 33.8016 72.9783C32.1988 72.5873 30.2279 71.8334 29.3846 70.4094C28.8162 69.4507 28.8068 68.2686 28.9187 67.1517C29.0491 65.5554 29.3846 63.894 30.3491 62.6375C31.3135 61.381 33.0608 60.5665 34.5424 61.1157C35.7165 61.5718 37.0817 62.7445 37.2914 63.9871Z" fill="#7C5C5C"/>
<path d="M47.5136 158.534H41.6103C41.039 158.534 40.5759 158.997 40.5759 159.567V160.242C40.5759 160.813 41.039 161.275 41.6103 161.275H47.5136C48.0849 161.275 48.548 160.813 48.548 160.242V159.567C48.548 158.997 48.0849 158.534 47.5136 158.534Z" fill="#005898"/>
<g style="mix-blend-mode:screen">
<path d="M47.5136 158.534H41.6103C41.039 158.534 40.5759 158.997 40.5759 159.567V160.242C40.5759 160.813 41.039 161.275 41.6103 161.275H47.5136C48.0849 161.275 48.548 160.813 48.548 160.242V159.567C48.548 158.997 48.0849 158.534 47.5136 158.534Z" fill="#115B9F"/>
</g>
<path d="M27.8878 157.479L22.8087 154.474C22.3171 154.183 21.6827 154.345 21.3915 154.836L21.0472 155.417C20.7561 155.908 20.9185 156.541 21.41 156.832L26.4892 159.837C26.9807 160.128 27.6151 159.966 27.9063 159.475L28.2506 158.894C28.5417 158.403 28.3793 157.77 27.8878 157.479Z" fill="#005898"/>
<g style="mix-blend-mode:screen">
<path d="M27.8878 157.479L22.8087 154.474C22.3171 154.183 21.6827 154.345 21.3915 154.836L21.0472 155.417C20.7561 155.908 20.9185 156.541 21.41 156.832L26.4892 159.837C26.9807 160.128 27.6151 159.966 27.9063 159.475L28.2506 158.894C28.5417 158.403 28.3793 157.77 27.8878 157.479Z" fill="#115B9F"/>
</g>
<path d="M42.5044 164.276L40.5708 167.539H52.7641L46.6139 164.276H42.5044Z" fill="#034E93"/>
<path d="M24.5988 164.971L23.1125 162.695L20.5825 161.22L17.498 162.653L23.3687 166.069L23.9325 166.479L27.5435 166.842L24.5988 164.971Z" fill="#034E93"/>
<path d="M164.187 119.707H163.285C156.401 119.707 153.643 119.535 152.984 117.378C152.624 115.682 153.081 113.904 155.147 113.368C158.366 112.537 163.981 115.825 163.981 115.825L164.187 119.707Z" fill="#6D7CFF"/>
<path d="M184.606 143.44H158.523V145.306H184.606V143.44Z" fill="#4A4A4A"/>
<path d="M188.622 132.426C189.169 133.533 188.215 134.662 186.981 134.662H156.136C154.903 134.662 153.948 133.534 154.493 132.427C155.658 130.059 157.934 128.509 160.493 128.52L171.557 128.551L182.616 128.52C185.18 128.509 187.456 130.064 188.622 132.426Z" fill="#4A4A4A"/>
<path d="M171.588 128.031C171.543 127.288 171.603 126.543 171.767 125.817C172.215 123.213 173.727 117.92 178.214 118.52C184.133 119.311 182.33 130.563 182.33 130.563L178.496 158.105L174.711 158.248C174.711 158.248 173.1 142.187 171.588 128.031Z" fill="#114372"/>
<path d="M189.702 115.917C189.604 116.319 189.456 116.707 189.26 117.072C187.541 120.222 180.101 119.705 180.101 119.705H163.118C156.089 119.705 153.272 119.53 152.598 117.327C152.559 117.204 152.528 117.079 152.505 116.952C152.03 114.394 154.403 106.064 158.788 100.353C161.033 97.4314 163.353 95.8928 165.416 95.0903C166.993 94.4903 168.669 94.1961 170.356 94.2234C172.512 94.2234 174.251 94.383 175.729 94.7289C179.692 95.6622 181.764 97.9103 184.875 101.899C188.677 106.774 190.553 112.496 189.702 115.917Z" fill="#6D7CFF"/>
<path opacity="0.2" d="M186.946 112.345C186.946 112.345 185.996 111.842 182.287 112.372C181.1 109.286 180.74 106.093 180.787 102.839L178.237 111.17H164.363L162.764 102.85C162.291 106.619 161.758 110.343 160.239 113.181C156.355 112.602 155.367 113.123 155.367 113.123C155.367 113.123 160.473 115.132 160.557 115.132C160.668 114.965 160.748 114.78 160.793 114.584C174.437 124.047 183.106 114.214 183.106 114.214C183.055 114.112 183.007 114.008 182.958 113.906C184.48 113.314 186.946 112.345 186.946 112.345Z" fill="black"/>
<path d="M189.703 115.918C189.605 116.32 189.457 116.708 189.261 117.073C187.542 120.223 180.102 119.706 180.102 119.706H175.064L175.705 115.423C175.705 115.423 184.641 111.271 187.843 112.566C189.409 113.2 189.888 114.514 189.703 115.918Z" fill="#6D7CFF"/>
<path d="M170.671 98.8665H170.563C170.013 98.8734 169.467 98.7631 168.963 98.5429C168.453 98.3015 168.024 97.9155 167.73 97.4325C167.436 96.9494 167.29 96.3906 167.308 95.8248C167.308 95.7073 167.308 95.6031 167.308 95.479C167.308 94.5257 167.251 93.7342 167.251 93.7342V93.3041L173.227 93.0381C173.247 93.7913 173.327 94.5416 173.468 95.2817C173.469 95.2913 173.469 95.3009 173.468 95.3105C173.552 95.733 173.544 96.1688 173.444 96.5879C173.344 97.007 173.155 97.3992 172.889 97.7374C172.623 98.0757 172.286 98.3518 171.904 98.5468C171.521 98.7418 171.1 98.8509 170.671 98.8665Z" fill="#FBBEBE"/>
<path opacity="0.35" d="M173.467 95.2817C170.977 98.217 168.419 96.5032 167.31 95.479C167.31 94.5257 167.252 93.7342 167.252 93.7342V93.3041L173.228 93.0381C173.247 93.7912 173.327 94.5415 173.467 95.2817Z" fill="#C99898"/>
<path d="M165.423 90.3878C165.423 90.3878 167.276 95.631 170.367 95.631C173.458 95.631 174.741 89.9865 174.741 89.9865V85.0781H165.187L165.423 90.3878Z" fill="#FBBEBE"/>
<path d="M164.429 87.4307C164.429 87.4307 163.519 87.5992 163.673 88.6478C163.828 89.6964 164.778 90.9667 165.549 90.2994L164.429 87.4307Z" fill="#FBBEBE"/>
<path d="M175.463 86.9951C175.463 86.9951 176.387 87.035 176.376 88.1036C176.365 89.1722 175.596 90.5423 174.741 89.9969L175.463 86.9951Z" fill="#FBBEBE"/>
<path d="M175.464 86.9937C175.285 88.0055 175.044 89.005 174.742 89.9867L173.774 86.7011C173.774 86.7011 172.574 87.7564 170.144 88.1998C168.819 88.4436 167.21 88.0623 165.845 87.497C165.845 87.497 165.774 87.8051 165.423 90.3791C165.423 90.3791 165.187 89.6098 164.429 87.4216C164.323 87.4318 164.221 87.4648 164.129 87.5184C164.037 87.572 163.958 87.6448 163.897 87.732C163.897 87.732 163.011 84.3843 163.404 82.7105C163.713 81.418 164.84 78.6379 169.877 78.5182C171.081 78.4983 173.617 78.128 174.887 82.3558C174.887 82.3558 177.735 82.4467 176.045 87.2332C176.045 87.2354 175.935 87.0381 175.464 86.9937Z" fill="#7C5C5C"/>
<path d="M180.451 118.939H161.78L161.21 107.156C161.205 107.095 161.213 107.033 161.233 106.975C161.252 106.916 161.284 106.863 161.326 106.818C161.367 106.772 161.418 106.736 161.474 106.712C161.53 106.687 161.591 106.675 161.652 106.675H180.833C180.895 106.674 180.957 106.687 181.014 106.713C181.071 106.738 181.122 106.775 181.164 106.821C181.205 106.868 181.237 106.923 181.256 106.982C181.275 107.042 181.281 107.105 181.275 107.167L180.451 118.939Z" fill="#D6DDE9"/>
<path d="M180.504 118.849H161.725C161.603 118.849 161.504 118.939 161.504 119.052V119.533C161.504 119.645 161.603 119.735 161.725 119.735H180.504C180.626 119.735 180.725 119.645 180.725 119.533V119.052C180.725 118.939 180.626 118.849 180.504 118.849Z" fill="#B7BDC5"/>
<path d="M171.242 114.219C171.896 114.219 172.426 113.734 172.426 113.135C172.426 112.536 171.896 112.051 171.242 112.051C170.588 112.051 170.058 112.536 170.058 113.135C170.058 113.734 170.588 114.219 171.242 114.219Z" fill="white"/>
<path d="M158.525 134.15H156.587V164.17H158.525V134.15Z" fill="#4A4A4A"/>
<path d="M186.54 134.15H184.603V164.17H186.54V134.15Z" fill="#4A4A4A"/>
<path d="M159.405 125.31C159.405 125.31 164.371 130.401 171.149 130.401C179.381 130.401 182.897 126.258 182.897 126.258L181.324 121.425L159.597 121.382L159.405 125.31Z" fill="#114372"/>
<path d="M175.108 158.218L175.247 161.314L178.231 160.692V158.115L175.108 158.218Z" fill="#FBBEBE"/>
<path d="M178.958 157.888C179.064 157.259 178.552 156.697 177.916 156.745L175.259 156.944C174.74 156.983 174.344 157.425 174.362 157.945C174.381 158.488 174.841 158.909 175.383 158.876C176.166 158.829 177.264 158.758 178.101 158.687C178.537 158.649 178.885 158.319 178.958 157.888Z" fill="#1194D8"/>
<path d="M153.782 118.6C153.782 118.6 159.151 126.653 165.325 129.839C171.897 133.244 174.993 127.002 174.993 127.002C174.993 127.002 160.332 116.703 153.782 118.6Z" fill="#114372"/>
<path d="M186.384 128.698L189.412 129.36L189.896 126.747L187.095 125.651L186.384 128.698Z" fill="#FBBEBE"/>
<path d="M187.729 125.961C187.536 127.004 187.163 128.006 186.629 128.923C186.629 128.923 161.942 123.039 157.83 121.393C156.226 120.736 154.792 119.725 153.634 118.436C153.384 118.153 153.154 117.854 152.945 117.541C151.679 115.68 151.459 113.626 153.468 112.217C157.208 109.595 161.66 112.244 161.66 112.244C161.66 112.244 166.765 112.919 176.017 118.811C180.079 121.42 187.729 125.961 187.729 125.961Z" fill="#115B9F"/>
<path d="M187.374 125.11C186.85 124.874 186.24 125.17 186.1 125.727L185.529 127.997C185.407 128.481 185.719 128.967 186.21 129.057C186.636 129.136 187.054 128.887 187.184 128.473C187.384 127.833 187.674 126.885 187.875 126.134C187.987 125.716 187.77 125.288 187.374 125.11Z" fill="#1194D8"/>
<path d="M176.357 160.517C177.006 160.306 177.668 160.14 178.339 160.021C178.787 160.021 181.82 163.049 182.813 163.193C184.603 163.448 184.728 166.159 183.659 166.324C180.558 166.861 175.158 165.823 175.158 165.823C175.158 165.823 174.505 162.369 174.666 161.264C174.827 160.159 175.503 160.88 176.357 160.517Z" fill="#034E93"/>
<path d="M189.04 128.144C189.353 127.532 189.71 126.945 190.11 126.386C190.414 126.068 194.986 126.037 195.814 125.433C197.317 124.341 199.5 126.158 198.861 127.052C197.008 129.638 192.266 132.748 192.266 132.748C192.266 132.748 189.134 130.784 188.396 129.889C187.658 128.994 188.678 129.007 189.04 128.144Z" fill="#034E93"/>
</svg>
